<svg xmlns="http://www.w3.org/2000/svg" xmlns:v="https://svgstorm.com"
viewBox = "0 0 312 320"
width="312"
height="320">
<g fill="None" fill-opacity="0.0" stroke="#000000" stroke-opacity="0.00" stroke-width="0.3"><path d="
M 0.00 320.00 
L 312.00 320.00
L 312.00 0.00
L 0.00 0.00
L 0.00 320.00
M 158.00 69.00 
C 160.27 69.19 162.72 69.07 165.00 69.00
C 167.18 68.93 168.68 69.52 171.00 70.00
C 175.40 70.49 178.97 70.20 183.00 72.00
C 186.36 73.50 189.09 76.40 192.00 78.00
C 193.60 78.70 195.35 79.16 197.00 80.00
C 198.72 80.61 199.64 81.26 202.00 83.00
C 203.17 83.69 204.75 84.11 206.00 85.00
C 210.09 87.90 215.41 92.75 218.00 97.00
C 218.39 97.64 218.86 98.25 219.00 99.00
C 219.09 99.48 219.00 100.00 219.00 100.00
C 220.85 100.48 222.01 101.74 222.00 104.00
C 222.00 104.50 222.00 105.00 222.00 105.00
C 226.17 107.22 227.10 108.99 229.00 113.00
C 231.25 117.76 232.55 122.01 234.00 127.00
C 235.04 130.57 234.42 129.87 234.00 133.00
C 234.07 135.19 234.38 135.68 234.00 138.00
C 233.86 138.88 232.91 141.29 233.00 142.00
C 233.21 143.34 236.91 143.54 236.00 146.00
C 237.33 148.26 236.79 151.39 237.00 154.00
C 237.21 155.02 237.91 156.42 238.00 158.00
C 238.14 160.42 238.45 163.62 238.00 166.00
C 237.65 167.82 235.55 170.44 235.00 172.00
C 234.34 174.61 233.92 177.44 233.00 180.00
C 232.05 182.64 230.73 184.03 229.00 186.00
C 227.15 188.10 224.84 190.05 223.00 192.00
C 222.14 193.08 222.15 194.70 220.00 195.00
C 219.22 196.87 216.74 199.15 215.00 200.00
C 214.60 200.20 214.00 200.00 214.00 200.00
C 212.83 201.61 211.19 201.69 210.00 203.00
C 208.17 205.01 208.16 208.54 207.00 211.00
C 207.05 211.49 207.00 212.00 207.00 212.00
C 206.40 214.75 204.24 215.91 203.00 218.00
C 201.95 220.24 201.25 222.73 200.00 225.00
C 197.96 228.70 194.52 233.70 191.00 236.00
C 190.78 236.36 191.00 237.00 191.00 237.00
C 189.74 239.58 186.36 242.56 184.00 244.00
C 183.39 244.37 182.55 244.63 182.00 245.00
C 179.65 247.19 178.02 249.59 175.00 251.00
C 169.75 253.46 159.76 257.27 154.00 257.00
C 152.12 256.91 151.32 255.48 150.00 255.00
C 146.36 254.08 143.53 253.41 140.00 252.00
C 138.33 251.33 137.28 251.32 136.00 250.00
C 135.50 249.97 135.00 250.00 135.00 250.00
C 122.41 247.05 112.52 233.49 106.00 223.00
C 105.78 222.64 106.00 222.00 106.00 222.00
C 104.24 221.10 103.17 219.97 103.00 218.00
C 102.96 217.50 103.00 217.00 103.00 217.00
C 101.53 216.12 101.21 215.74 101.00 214.00
C 100.89 213.05 100.97 211.95 101.00 211.00
C 100.75 210.18 100.20 207.51 100.00 207.00
C 99.29 205.59 96.82 204.67 96.00 203.00
C 95.80 202.60 96.00 202.00 96.00 202.00
C 93.78 200.81 92.77 199.49 91.00 198.00
C 89.70 196.91 90.06 197.59 89.00 196.00
C 85.90 192.44 82.20 190.29 80.00 186.00
C 79.64 185.29 79.15 184.80 79.00 184.00
C 77.36 182.24 75.29 181.13 74.00 179.00
C 73.63 178.39 73.37 177.55 73.00 177.00
C 71.72 175.12 70.94 173.24 70.00 171.00
C 66.56 162.84 71.30 158.99 73.00 151.00
C 77.10 150.09 80.94 145.67 85.00 147.00
C 86.48 145.33 85.81 143.03 86.00 141.00
C 86.17 139.23 86.62 138.24 87.00 137.00
C 87.33 133.40 88.86 129.44 90.00 126.00
C 90.08 125.62 90.79 122.85 91.00 122.00
C 91.05 121.00 90.96 120.00 91.00 119.00
C 91.10 116.76 92.69 115.53 93.00 114.00
C 93.18 112.36 92.75 110.63 93.00 109.00
C 93.39 106.51 95.86 102.34 98.00 101.00
C 98.10 100.52 98.00 100.00 98.00 100.00
C 99.35 97.25 102.66 94.74 105.00 93.00
C 108.58 90.34 112.03 88.67 116.00 89.00
C 116.14 89.01 116.69 88.21 117.00 88.00
C 120.91 82.98 124.71 78.18 130.00 75.00
C 136.44 71.14 145.40 69.39 153.00 69.00
C 154.82 68.70 156.34 68.86 158.00 69.00 Z"/>
</g>
<g fill="None" fill-opacity="0.0" stroke="#EDEDED" stroke-opacity="0.09" stroke-width="0.3"><path d="
M 153.00 69.00 
C 154.60 68.92 156.41 68.83 158.00 69.00
C 156.34 68.86 154.82 68.70 153.00 69.00 Z"/>
</g>
<g fill="None" fill-opacity="0.0" stroke="#D0D0D0" stroke-opacity="0.22" stroke-width="0.3"><path d="
M 165.00 69.00 
C 167.15 68.99 168.84 69.76 171.00 70.00
C 168.68 69.52 167.18 68.93 165.00 69.00 Z"/>
</g>
<g fill="None" fill-opacity="0.0" stroke="#242323" stroke-opacity="0.96" stroke-width="0.3"><path d="
M 130.00 75.00 
C 126.80 77.41 123.58 81.98 121.00 85.00
C 119.67 86.56 118.46 89.25 116.00 89.00
C 112.03 88.67 108.58 90.34 105.00 93.00
C 102.54 95.14 100.73 98.09 98.00 100.00
C 98.00 100.00 98.10 100.52 98.00 101.00
C 97.33 104.03 93.62 106.43 93.00 109.00
C 92.75 110.63 93.18 112.36 93.00 114.00
C 92.80 115.82 91.31 117.65 91.00 119.00
C 90.96 120.00 91.05 121.00 91.00 122.00
C 90.91 123.74 90.52 124.44 90.00 126.00
C 88.86 129.44 87.33 133.40 87.00 137.00
C 86.88 138.31 87.00 139.69 87.00 141.00
C 87.01 144.53 87.38 145.25 85.00 147.00
C 80.94 145.67 77.10 150.09 73.00 151.00
C 71.30 158.99 66.56 162.84 70.00 171.00
C 70.95 172.66 71.93 175.31 73.00 177.00
C 74.41 179.24 77.73 180.41 79.00 183.00
C 79.20 183.40 79.00 184.00 79.00 184.00
C 79.15 184.80 79.64 185.29 80.00 186.00
C 80.60 186.71 81.41 187.23 82.00 188.00
C 85.14 191.17 88.10 194.99 91.00 198.00
C 92.42 199.48 94.54 200.70 96.00 202.00
C 99.42 205.04 101.16 206.03 101.00 211.00
C 100.97 211.95 100.89 213.05 101.00 214.00
C 101.40 215.26 103.06 214.89 103.00 217.00
C 103.00 217.00 102.96 217.50 103.00 218.00
C 103.90 219.20 105.23 220.54 106.00 222.00
C 106.00 222.00 105.78 222.64 106.00 223.00
C 111.45 226.81 113.92 233.35 118.75 238.25 C 123.58 243.15 130.00 245.99 135.00 250.00
C 135.00 250.00 135.50 249.97 136.00 250.00
C 137.91 250.12 138.64 251.26 140.00 252.00
C 143.53 253.41 146.36 254.08 150.00 255.00
C 151.13 255.28 153.34 256.90 154.00 257.00
C 159.76 257.27 169.75 253.46 175.00 251.00
C 177.32 249.61 179.60 246.65 182.00 245.00
C 182.55 244.63 183.39 244.37 184.00 244.00
C 186.41 241.75 188.26 238.92 191.00 237.00
C 191.00 237.00 190.78 236.36 191.00 236.00
C 193.55 231.90 197.30 228.70 200.00 225.00
C 201.25 222.73 201.95 220.24 203.00 218.00
C 204.04 215.78 205.40 213.64 207.00 212.00
C 207.00 212.00 207.05 211.49 207.00 211.00
C 206.54 206.79 207.36 205.61 210.00 203.00
C 211.31 201.70 212.61 201.15 214.00 200.00
C 214.78 198.14 217.26 195.85 219.00 195.00
C 219.40 194.80 220.00 195.00 220.00 195.00
C 222.15 194.70 222.14 193.08 223.00 192.00
C 224.30 190.37 225.69 188.54 227.00 187.00
C 228.80 184.89 231.88 182.25 233.00 180.00
C 233.92 177.44 234.34 174.61 235.00 172.00
C 235.62 169.55 237.49 167.69 238.00 166.00
C 238.45 163.62 238.14 160.42 238.00 158.00
C 237.84 157.06 237.12 155.49 237.00 154.00
C 236.79 151.39 237.33 148.26 236.00 146.00
C 235.84 145.73 235.21 145.31 235.00 145.00
C 230.50 142.44 233.23 141.09 234.00 138.00
C 234.38 135.68 234.07 135.19 234.00 133.00
C 233.94 131.01 234.17 128.98 234.00 127.00
C 232.55 122.01 231.25 117.76 229.00 113.00
C 227.16 109.83 223.98 107.89 222.00 105.00
C 222.00 105.00 222.00 104.50 222.00 104.00
C 220.58 102.96 219.48 101.79 219.00 100.00
C 219.00 100.00 219.09 99.48 219.00 99.00
C 214.95 96.17 210.93 91.87 208.00 88.00
C 207.36 87.15 206.71 85.68 206.00 85.00
C 204.75 84.11 203.17 83.69 202.00 83.00
C 200.18 81.94 198.75 80.90 197.00 80.00
C 195.35 79.16 193.60 78.70 192.00 78.00
C 188.52 76.48 185.97 73.69 183.00 72.00
C 178.97 70.20 175.40 70.49 171.00 70.00
C 168.84 69.76 167.15 68.99 165.00 69.00
C 163.21 69.01 159.88 69.20 158.00 69.00
C 156.41 68.83 154.60 68.92 153.00 69.00
C 145.40 69.39 136.44 71.14 130.00 75.00
M 158.00 72.00 
C 159.31 72.11 160.68 72.00 162.00 72.00
C 165.01 72.00 168.76 71.34 171.00 73.00
C 171.48 73.11 172.00 73.00 172.00 73.00
C 174.20 72.73 175.49 73.58 177.00 74.00
C 186.92 76.75 201.34 84.94 208.00 92.00
C 209.18 93.25 210.82 94.82 212.00 96.00
C 219.08 103.08 225.18 113.55 228.00 123.00
C 228.81 125.73 229.49 128.13 230.00 131.00
C 230.54 134.01 231.55 137.07 230.00 140.00
C 229.11 141.69 228.71 142.83 228.00 140.00
C 227.45 139.51 228.11 135.82 228.00 135.00
C 227.71 132.78 225.77 129.78 226.00 127.00
C 225.24 125.67 222.41 124.14 221.00 124.00
C 221.18 127.26 224.46 129.53 224.00 133.00
C 224.62 135.54 225.57 138.14 225.00 141.00
C 222.77 139.49 219.66 139.05 218.00 137.00
C 217.70 136.76 217.00 137.00 217.00 137.00
C 214.09 135.58 212.73 131.33 209.00 132.00
C 208.47 133.28 209.97 133.86 210.00 135.00
C 212.25 135.59 213.81 138.26 216.00 139.00
C 212.61 140.38 207.23 137.89 203.00 138.00
C 201.12 137.74 199.74 137.36 198.00 137.00
C 195.34 136.44 190.77 137.40 191.00 133.00
C 193.62 132.00 194.59 135.33 197.00 135.00
C 198.00 135.17 198.76 136.48 200.00 136.00
C 198.47 132.67 196.02 127.86 192.00 127.00
C 191.92 127.49 192.00 128.00 192.00 128.00
C 195.12 132.83 182.02 126.64 183.00 131.00
C 183.51 130.75 188.32 133.11 184.00 133.00
C 179.69 132.89 175.17 130.97 171.00 130.00
C 169.47 129.65 168.17 127.98 167.00 130.00
C 166.99 130.50 167.00 131.00 167.00 131.00
C 169.15 134.07 173.33 132.06 176.00 134.00
C 173.96 136.65 170.64 133.57 168.00 134.00
C 163.33 133.88 157.06 137.68 153.00 137.00
C 151.16 136.69 150.07 134.08 149.00 133.00
C 148.23 132.20 147.53 130.94 147.00 130.00
C 142.83 130.01 147.49 133.10 147.00 135.00
C 143.22 134.38 140.28 130.96 136.00 132.00
C 136.55 133.51 136.32 135.46 137.00 137.00
C 131.65 136.31 124.13 130.58 120.00 137.00
C 118.13 136.49 116.70 135.02 115.00 134.00
C 113.39 133.39 110.79 133.07 109.00 133.00
C 107.00 132.93 105.00 133.06 103.00 133.00
C 102.47 134.28 103.97 134.86 104.00 136.00
C 108.55 136.52 112.89 135.88 117.00 138.00
C 111.24 144.35 101.44 144.98 93.00 145.00
C 91.88 144.97 90.43 146.86 89.00 146.00
C 89.00 141.08 89.64 136.25 92.00 132.00
C 93.55 126.30 93.75 120.21 96.00 115.00
C 98.02 110.31 99.77 106.18 104.00 103.00
C 108.67 99.49 112.65 99.11 118.00 100.00
C 118.83 99.62 120.14 100.30 121.00 100.00
C 120.28 96.06 122.49 92.90 122.00 89.00
C 126.09 85.01 134.97 85.81 136.00 80.00
C 133.23 80.27 130.93 82.22 128.00 82.00
C 133.24 73.78 143.84 74.46 152.00 72.00
C 152.50 72.02 153.55 72.15 154.00 72.00
C 155.69 71.45 155.78 71.82 158.00 72.00
M 116.00 94.00 
C 114.10 99.02 108.49 93.42 116.00 94.00
M 186.00 138.00 
C 192.20 139.17 198.54 140.96 205.00 141.00 C 211.47 141.04 218.16 145.04 224.67 144.33 C 231.18 143.62 238.08 153.22 230.00 154.00
C 234.55 154.55 235.10 159.65 235.00 164.00
C 221.70 158.43 207.38 155.90 193.00 154.00
C 184.59 153.19 176.78 152.18 168.00 152.00
C 158.43 151.81 148.86 150.80 139.00 151.00
C 137.25 151.17 134.40 151.95 132.00 152.00
C 110.75 152.42 90.64 159.56 71.00 166.00
C 73.06 163.46 73.01 158.26 77.00 158.00
C 77.65 156.73 76.39 155.93 78.00 154.00
C 82.82 145.30 100.79 149.96 109.02 146.02 C 117.25 142.09 130.74 137.70 140.00 142.00
C 144.79 132.49 155.19 145.03 162.00 138.00
C 169.34 136.45 178.71 136.62 186.00 138.00
M 174.00 155.00 
C 176.56 155.05 179.11 155.69 181.00 156.00
C 185.13 156.20 188.76 156.80 193.00 157.00
C 195.22 157.10 197.41 157.72 199.00 158.00
C 204.01 157.98 209.19 159.90 214.00 161.00
C 217.61 161.83 221.08 163.28 225.00 163.00
C 224.33 164.20 223.36 165.58 222.00 166.00
C 219.23 173.05 219.85 182.69 221.00 190.00
C 213.86 195.06 209.99 198.94 202.92 203.92 C 195.84 208.90 186.75 208.28 178.93 212.93 C 171.10 217.57 165.80 207.42 159.00 204.00
C 157.73 204.29 156.28 203.79 155.00 204.00
C 147.43 205.22 146.50 212.83 141.00 216.00
C 137.75 217.87 134.77 216.45 132.00 216.00
C 118.58 213.82 105.78 208.13 96.00 198.00
C 98.10 191.95 91.78 186.66 90.22 180.78 C 88.66 174.89 82.96 168.92 77.00 168.00
C 106.60 155.20 140.68 152.39 174.00 155.00
M 231.00 166.00 
C 229.83 173.01 225.88 179.15 224.00 186.00
C 223.72 180.40 220.97 164.79 231.00 166.00
M 91.00 191.00 
C 92.74 191.78 93.21 193.42 94.00 195.00
C 92.08 195.51 91.77 193.16 91.00 192.00
C 82.87 188.60 79.25 176.85 74.00 171.00
C 84.22 171.77 86.24 183.95 91.00 191.00
M 163.00 252.00 
C 146.82 256.19 128.96 245.33 118.00 233.00
C 115.22 229.87 113.27 226.34 111.00 223.00
C 108.14 218.79 102.96 215.13 104.00 209.00
C 111.71 213.23 119.70 216.45 128.00 219.00
C 137.46 221.31 141.49 219.19 147.00 212.00
C 148.48 210.06 150.27 207.88 153.00 208.00
C 155.10 207.94 158.67 210.77 159.75 213.25 C 160.83 215.72 164.67 216.60 167.00 218.00
C 176.13 217.17 183.49 214.27 192.00 212.00
C 196.14 210.89 200.61 208.29 205.00 207.00
C 197.81 226.08 183.29 245.48 163.00 252.00 Z"/>
</g>
<g fill="None" fill-opacity="0.0" stroke="#3D3D3D" stroke-opacity="0.45" stroke-width="0.3"><path d="
M 165.00 69.00 
C 162.72 69.07 160.27 69.19 158.00 69.00
C 159.88 69.20 163.21 69.01 165.00 69.00 Z"/>
</g>
<g fill="None" fill-opacity="0.0" stroke="#5A5659" stroke-opacity="1.00" stroke-width="0.3"><path d="
M 154.00 72.00 
C 155.11 71.56 152.04 76.20 150.00 74.00
C 150.08 72.74 152.06 73.44 152.00 72.00
C 143.84 74.46 133.24 73.78 128.00 82.00
C 130.93 82.22 133.23 80.27 136.00 80.00
C 134.97 85.81 126.09 85.01 122.00 89.00
C 122.49 92.90 120.28 96.06 121.00 100.00
C 120.14 100.30 118.83 99.62 118.00 100.00
C 119.96 100.32 122.66 102.68 125.00 103.00
C 126.53 97.54 131.90 98.67 136.74 97.40 C 141.58 96.14 146.79 101.98 152.00 102.00
C 148.64 100.26 147.65 97.59 149.00 94.00
C 149.39 99.96 152.73 94.18 155.00 98.00
C 156.21 98.57 156.83 100.02 159.00 101.00
C 158.18 100.42 158.06 98.89 158.00 98.00
C 166.34 98.55 177.32 102.22 180.00 111.00
C 176.08 110.90 174.92 105.07 171.00 105.00
C 179.75 110.88 183.28 118.73 193.00 122.00
C 191.13 123.68 193.52 125.30 192.00 127.00
C 196.02 127.86 198.47 132.67 200.00 136.00
C 198.76 136.48 198.00 135.17 197.00 135.00
C 197.49 135.43 197.60 136.62 198.00 137.00
C 199.74 137.36 201.12 137.74 203.00 138.00
C 201.77 137.37 200.85 136.37 202.00 135.00
C 204.85 138.16 207.50 133.32 210.00 135.00
C 209.97 133.86 208.47 133.28 209.00 132.00
C 212.73 131.33 214.09 135.58 217.00 137.00
C 215.49 134.84 211.79 132.71 214.00 130.00
C 216.18 132.72 217.50 132.95 221.00 132.00
C 218.51 128.84 219.50 124.53 215.00 123.00
C 215.05 117.86 218.74 120.05 219.00 116.00
C 214.55 114.12 214.69 109.05 216.00 105.00
C 211.86 105.02 210.20 103.44 213.00 100.00
C 209.42 101.08 207.50 102.24 204.00 99.00
C 207.46 92.88 198.45 90.25 194.00 92.00
C 194.16 83.68 180.22 88.64 181.00 78.00
C 179.69 81.44 178.16 77.13 176.00 79.00
C 176.66 77.21 173.10 75.04 175.00 74.00
C 175.39 73.79 176.82 73.76 177.00 74.00
C 175.49 73.58 174.20 72.73 172.00 73.00
C 170.31 74.39 168.48 75.95 166.00 76.00
C 164.88 72.48 168.77 72.92 171.00 73.00
C 168.76 71.34 165.01 72.00 162.00 72.00
C 162.88 72.19 165.45 73.41 165.00 75.00
C 162.81 73.88 159.05 74.86 158.00 72.00
C 155.78 71.82 155.69 71.45 154.00 72.00
M 171.00 92.00 
C 163.79 93.58 162.25 84.44 154.33 88.33 C 146.41 92.22 150.98 82.19 157.00 84.00 C 163.02 85.81 168.30 86.67 171.00 92.00
M 144.00 94.00 
C 139.87 91.25 135.41 94.58 131.00 94.00
C 130.71 89.54 144.82 87.20 144.00 94.00
M 210.00 112.00 
C 200.12 114.56 195.60 97.32 185.00 97.00
C 187.30 90.83 194.49 97.54 197.75 101.25 C 201.02 104.95 206.27 109.68 210.00 112.00 Z"/>
</g>
<g fill="None" fill-opacity="0.0" stroke="#A0A0A0" stroke-opacity="1.00" stroke-width="0.3"><path d="
M 154.00 72.00 
C 153.55 72.15 152.50 72.02 152.00 72.00
C 152.06 73.44 150.08 72.74 150.00 74.00
C 152.04 76.20 155.11 71.56 154.00 72.00 Z"/>
</g>
<g fill="None" fill-opacity="0.0" stroke="#8E8E8E" stroke-opacity="1.00" stroke-width="0.3"><path d="
M 162.00 72.00 
C 160.68 72.00 159.31 72.11 158.00 72.00
C 159.05 74.86 162.81 73.88 165.00 75.00
C 165.45 73.41 162.88 72.19 162.00 72.00 Z"/>
</g>
<g fill="None" fill-opacity="0.0" stroke="#DDDDDD" stroke-opacity="0.18" stroke-width="0.3"><path d="
M 192.00 78.00 
C 189.09 76.40 186.36 73.50 183.00 72.00
C 185.97 73.69 188.52 76.48 192.00 78.00 Z"/>
</g>
<g fill="None" fill-opacity="0.0" stroke="#858585" stroke-opacity="1.00" stroke-width="0.3"><path d="
M 172.00 73.00 
C 172.00 73.00 171.48 73.11 171.00 73.00
C 168.77 72.92 164.88 72.48 166.00 76.00
C 168.48 75.95 170.31 74.39 172.00 73.00 Z"/>
</g>
<g fill="None" fill-opacity="0.0" stroke="#6A696A" stroke-opacity="1.00" stroke-width="0.3"><path d="
M 217.00 137.00 
C 217.00 137.00 217.70 136.76 218.00 137.00
C 218.32 135.62 218.88 134.47 219.00 133.00
C 220.64 136.42 221.01 132.11 224.00 133.00
C 224.46 129.53 221.18 127.26 221.00 124.00
C 222.41 124.14 225.24 125.67 226.00 127.00
C 226.08 125.99 228.01 123.89 228.00 123.00
C 225.18 113.55 219.08 103.08 212.00 96.00
C 212.72 98.17 213.25 99.34 210.00 99.00
C 211.21 94.93 203.89 93.66 208.00 92.00
C 201.34 84.94 186.92 76.75 177.00 74.00
C 177.92 75.21 177.63 75.73 177.00 77.00
C 175.99 76.45 175.56 75.02 175.00 74.00
C 173.10 75.04 176.66 77.21 176.00 79.00
C 178.16 77.13 179.69 81.44 181.00 78.00
C 180.22 88.64 194.16 83.68 194.00 92.00
C 198.45 90.25 207.46 92.88 204.00 99.00
C 207.50 102.24 209.42 101.08 213.00 100.00
C 210.20 103.44 211.86 105.02 216.00 105.00
C 214.69 109.05 214.55 114.12 219.00 116.00
C 218.74 120.05 215.05 117.86 215.00 123.00
C 219.50 124.53 218.51 128.84 221.00 132.00
C 217.50 132.95 216.18 132.72 214.00 130.00
C 211.79 132.71 215.49 134.84 217.00 137.00 Z"/>
</g>
<g fill="None" fill-opacity="0.0" stroke="#8F8F8F" stroke-opacity="1.00" stroke-width="0.3"><path d="
M 177.00 74.00 
C 176.82 73.76 175.39 73.79 175.00 74.00
C 175.56 75.02 175.99 76.45 177.00 77.00
C 177.63 75.73 177.92 75.21 177.00 74.00 Z"/>
</g>
<g fill="None" fill-opacity="0.0" stroke="#BAB9BA" stroke-opacity="0.30" stroke-width="0.3"><path d="
M 117.00 88.00 
C 118.28 87.14 119.94 86.02 121.00 85.00
C 123.58 81.98 126.80 77.41 130.00 75.00
C 124.71 78.18 120.91 82.98 117.00 88.00 Z"/>
</g>
<g fill="None" fill-opacity="0.0" stroke="#EFEFEF" stroke-opacity="0.20" stroke-width="0.3"><path d="
M 197.00 80.00 
C 198.75 80.90 200.18 81.94 202.00 83.00
C 199.64 81.26 198.72 80.61 197.00 80.00 Z"/>
</g>
<g fill="None" fill-opacity="0.0" stroke="#272727" stroke-opacity="1.00" stroke-width="0.3"><path d="
M 171.00 92.00 
C 168.30 86.67 163.02 85.81 157.00 84.00 C 150.98 82.19 146.41 92.22 154.33 88.33 C 162.25 84.44 163.79 93.58 171.00 92.00 Z"/>
</g>
<g fill="None" fill-opacity="0.0" stroke="#525052" stroke-opacity="0.73" stroke-width="0.3"><path d="
M 117.00 88.00 
C 116.69 88.21 116.14 89.01 116.00 89.00
C 118.46 89.25 119.67 86.56 121.00 85.00
C 119.94 86.02 118.28 87.14 117.00 88.00 Z"/>
</g>
<g fill="None" fill-opacity="0.0" stroke="#F8F8F8" stroke-opacity="0.13" stroke-width="0.3"><path d="
M 208.00 88.00 
C 210.92 91.19 215.10 93.89 218.00 97.00
C 215.41 92.75 210.09 87.90 206.00 85.00
C 206.71 85.68 207.36 87.15 208.00 88.00 Z"/>
</g>
<g fill="None" fill-opacity="0.0" stroke="#5C5C5C" stroke-opacity="0.64" stroke-width="0.3"><path d="
M 219.00 99.00 
C 218.86 98.25 218.39 97.64 218.00 97.00
C 215.10 93.89 210.92 91.19 208.00 88.00
C 210.93 91.87 214.95 96.17 219.00 99.00 Z"/>
</g>
<g fill="None" fill-opacity="0.0" stroke="#222121" stroke-opacity="1.00" stroke-width="0.3"><path d="
M 144.00 94.00 
C 144.82 87.20 130.71 89.54 131.00 94.00
C 135.41 94.58 139.87 91.25 144.00 94.00 Z"/>
</g>
<g fill="None" fill-opacity="0.0" stroke="#909090" stroke-opacity="1.00" stroke-width="0.3"><path d="
M 212.00 96.00 
C 210.82 94.82 209.18 93.25 208.00 92.00
C 203.89 93.66 211.21 94.93 210.00 99.00
C 213.25 99.34 212.72 98.17 212.00 96.00 Z"/>
</g>
<g fill="None" fill-opacity="0.0" stroke="#DFD8DE" stroke-opacity="0.25" stroke-width="0.3"><path d="
M 98.00 100.00 
C 100.73 98.09 102.54 95.14 105.00 93.00
C 102.66 94.74 99.35 97.25 98.00 100.00 Z"/>
</g>
<g fill="None" fill-opacity="0.0" stroke="#575356" stroke-opacity="1.00" stroke-width="0.3"><path d="
M 116.00 94.00 
C 108.49 93.42 114.10 99.02 116.00 94.00 Z"/>
</g>
<g fill="None" fill-opacity="0.0" stroke="#6A5D66" stroke-opacity="1.00" stroke-width="0.3"><path d="
M 118.00 100.00 
C 112.65 99.11 108.67 99.49 104.00 103.00
C 108.00 103.39 102.41 110.69 102.00 112.00
C 101.59 113.30 101.19 114.59 101.00 116.00
C 104.16 113.55 107.21 109.77 111.00 112.00
C 112.73 110.23 114.13 108.34 115.00 106.00
C 118.06 107.64 119.15 103.73 123.00 105.00
C 120.57 111.64 130.09 107.85 134.00 109.00 C 137.91 110.15 140.79 113.26 146.00 112.00
C 143.55 110.68 141.17 109.52 138.00 109.00
C 138.76 105.24 144.44 105.80 147.00 108.00
C 144.21 103.74 152.01 104.96 154.00 104.00
C 154.43 101.82 151.59 98.94 155.00 98.00
C 152.73 94.18 149.39 99.96 149.00 94.00
C 147.65 97.59 148.64 100.26 152.00 102.00
C 146.79 101.98 141.58 96.14 136.74 97.40 C 131.90 98.67 126.53 97.54 125.00 103.00
C 122.66 102.68 119.96 100.32 118.00 100.00 Z"/>
</g>
<g fill="None" fill-opacity="0.0" stroke="#232323" stroke-opacity="1.00" stroke-width="0.3"><path d="
M 210.00 112.00 
C 206.27 109.68 201.02 104.95 197.75 101.25 C 194.49 97.54 187.30 90.83 185.00 97.00
C 195.60 97.32 200.12 114.56 210.00 112.00 Z"/>
</g>
<g fill="None" fill-opacity="0.0" stroke="#80747D" stroke-opacity="1.00" stroke-width="0.3"><path d="
M 155.00 98.00 
C 151.59 98.94 154.43 101.82 154.00 104.00
C 152.01 104.96 144.21 103.74 147.00 108.00
C 147.92 108.55 149.26 109.32 150.00 110.00
C 153.00 110.89 155.97 107.43 157.00 105.00
C 160.35 107.00 166.97 107.99 164.00 102.00
C 162.62 101.57 160.21 101.55 159.00 101.00
C 156.83 100.02 156.21 98.57 155.00 98.00 Z"/>
</g>
<g fill="None" fill-opacity="0.0" stroke="#222223" stroke-opacity="1.00" stroke-width="0.3"><path d="
M 159.00 101.00 
C 160.21 101.55 162.62 101.57 164.00 102.00
C 166.44 102.75 168.70 103.76 171.00 105.00
C 174.92 105.07 176.08 110.90 180.00 111.00
C 177.32 102.22 166.34 98.55 158.00 98.00
C 158.06 98.89 158.18 100.42 159.00 101.00 Z"/>
</g>
<g fill="None" fill-opacity="0.0" stroke="#9F9F9F" stroke-opacity="0.35" stroke-width="0.3"><path d="
M 222.00 104.00 
C 222.01 101.74 220.85 100.48 219.00 100.00
C 219.48 101.79 220.58 102.96 222.00 104.00 Z"/>
</g>
<g fill="None" fill-opacity="0.0" stroke="#C5B7CE" stroke-opacity="0.29" stroke-width="0.3"><path d="
M 93.00 109.00 
C 93.62 106.43 97.33 104.03 98.00 101.00
C 95.86 102.34 93.39 106.51 93.00 109.00 Z"/>
</g>
<g fill="None" fill-opacity="0.0" stroke="#695A65" stroke-opacity="1.00" stroke-width="0.3"><path d="
M 150.00 110.00 
C 153.75 113.45 156.67 117.97 162.00 118.00
C 162.35 121.23 157.89 119.57 156.00 120.00
C 158.51 121.13 163.92 122.05 163.00 117.00
C 169.50 119.62 177.57 120.36 181.00 127.00
C 181.68 123.44 185.34 127.35 186.00 124.00
C 188.35 124.85 189.23 128.24 192.00 128.00
C 192.00 128.00 191.92 127.49 192.00 127.00
C 193.52 125.30 191.13 123.68 193.00 122.00
C 183.28 118.73 179.75 110.88 171.00 105.00
C 168.70 103.76 166.44 102.75 164.00 102.00
C 166.97 107.99 160.35 107.00 157.00 105.00
C 155.97 107.43 153.00 110.89 150.00 110.00 Z"/>
</g>
<g fill="None" fill-opacity="0.0" stroke="#8D7F8A" stroke-opacity="1.00" stroke-width="0.3"><path d="
M 96.00 115.00 
C 97.47 113.43 100.47 113.49 102.00 112.00
C 102.41 110.69 108.00 103.39 104.00 103.00
C 99.77 106.18 98.02 110.31 96.00 115.00 Z"/>
</g>
<g fill="None" fill-opacity="0.0" stroke="#806379" stroke-opacity="1.00" stroke-width="0.3"><path d="
M 102.00 112.00 
C 100.47 113.49 97.47 113.43 96.00 115.00
C 93.75 120.21 93.55 126.30 92.00 132.00
C 92.61 131.33 93.05 130.38 94.00 130.00
C 96.03 131.89 93.39 133.75 94.00 136.00
C 94.33 135.38 96.71 127.05 101.00 130.00
C 100.87 132.95 98.12 135.03 98.00 138.00
C 100.33 136.39 101.07 132.57 104.00 136.00
C 103.97 134.86 102.47 134.28 103.00 133.00
C 105.00 133.06 107.00 132.93 109.00 133.00
C 108.04 132.68 106.58 131.27 105.00 132.00
C 104.10 123.99 111.09 130.23 113.25 126.20 C 115.41 122.17 122.57 123.18 123.00 120.00
C 124.42 120.77 127.01 124.00 127.00 119.00
C 128.29 120.70 130.72 122.95 133.00 121.00
C 127.08 119.38 131.42 118.98 135.00 117.00
C 133.36 128.35 153.79 122.70 162.00 128.00
C 164.10 128.39 167.02 127.59 167.00 130.00
C 168.17 127.98 169.47 129.65 171.00 130.00
C 171.00 128.67 171.00 127.33 171.00 126.00
C 172.92 128.27 178.29 128.06 181.00 127.00
C 177.57 120.36 169.50 119.62 163.00 117.00
C 163.92 122.05 158.51 121.13 156.00 120.00
C 152.25 118.31 149.51 113.90 146.00 112.00
C 140.79 113.26 137.91 110.15 134.00 109.00 C 130.09 107.85 120.57 111.64 123.00 105.00
C 119.15 103.73 118.06 107.64 115.00 106.00
C 114.13 108.34 112.73 110.23 111.00 112.00
C 107.21 109.77 104.16 113.55 101.00 116.00
C 101.19 114.59 101.59 113.30 102.00 112.00 Z"/>
</g>
<g fill="None" fill-opacity="0.0" stroke="#D9D9D9" stroke-opacity="0.24" stroke-width="0.3"><path d="
M 229.00 113.00 
C 227.10 108.99 226.17 107.22 222.00 105.00
C 223.98 107.89 227.16 109.83 229.00 113.00 Z"/>
</g>
<g fill="None" fill-opacity="0.0" stroke="#252324" stroke-opacity="1.00" stroke-width="0.3"><path d="
M 146.00 112.00 
C 149.51 113.90 152.25 118.31 156.00 120.00
C 157.89 119.57 162.35 121.23 162.00 118.00
C 156.67 117.97 153.75 113.45 150.00 110.00
C 149.26 109.32 147.92 108.55 147.00 108.00
C 144.44 105.80 138.76 105.24 138.00 109.00
C 141.17 109.52 143.55 110.68 146.00 112.00 Z"/>
</g>
<g fill="None" fill-opacity="0.0" stroke="#CAB9C8" stroke-opacity="0.24" stroke-width="0.3"><path d="
M 91.00 119.00 
C 91.31 117.65 92.80 115.82 93.00 114.00
C 92.69 115.53 91.10 116.76 91.00 119.00 Z"/>
</g>
<g fill="None" fill-opacity="0.0" stroke="#98698C" stroke-opacity="1.00" stroke-width="0.3"><path d="
M 109.00 133.00 
C 110.79 133.07 113.39 133.39 115.00 134.00
C 114.43 132.04 116.16 130.88 116.00 129.00
C 119.79 128.90 124.58 131.17 127.00 127.00
C 130.30 128.08 135.04 127.74 136.00 132.00
C 140.28 130.96 143.22 134.38 147.00 135.00
C 147.49 133.10 142.83 130.01 147.00 130.00
C 147.53 130.94 148.23 132.20 149.00 133.00
C 149.49 133.51 150.52 133.60 151.00 134.00
C 150.02 132.66 148.77 131.42 148.00 130.00
C 152.16 135.37 158.55 128.99 162.00 132.00
C 162.00 130.67 162.00 129.33 162.00 128.00
C 153.79 122.70 133.36 128.35 135.00 117.00
C 131.42 118.98 127.08 119.38 133.00 121.00
C 130.72 122.95 128.29 120.70 127.00 119.00
C 127.01 124.00 124.42 120.77 123.00 120.00
C 122.57 123.18 115.41 122.17 113.25 126.20 C 111.09 130.23 104.10 123.99 105.00 132.00
C 106.58 131.27 108.04 132.68 109.00 133.00 Z"/>
</g>
<g fill="None" fill-opacity="0.0" stroke="#E6C5D7" stroke-opacity="0.25" stroke-width="0.3"><path d="
M 90.00 126.00 
C 90.52 124.44 90.91 123.74 91.00 122.00
C 90.79 122.85 90.08 125.62 90.00 126.00 Z"/>
</g>
<g fill="None" fill-opacity="0.0" stroke="#979898" stroke-opacity="1.00" stroke-width="0.3"><path d="
M 226.00 127.00 
C 225.77 129.78 227.71 132.78 228.00 135.00
C 228.24 132.87 229.63 132.30 230.00 131.00
C 229.49 128.13 228.81 125.73 228.00 123.00
C 228.01 123.89 226.08 125.99 226.00 127.00 Z"/>
</g>
<g fill="None" fill-opacity="0.0" stroke="#857982" stroke-opacity="1.00" stroke-width="0.3"><path d="
M 181.00 127.00 
C 183.36 127.99 182.24 128.89 183.00 131.00
C 182.02 126.64 195.12 132.83 192.00 128.00
C 189.23 128.24 188.35 124.85 186.00 124.00
C 185.34 127.35 181.68 123.44 181.00 127.00 Z"/>
</g>
<g fill="None" fill-opacity="0.0" stroke="#A993A4" stroke-opacity="1.00" stroke-width="0.3"><path d="
M 171.00 130.00 
C 175.17 130.97 179.69 132.89 184.00 133.00
C 183.53 132.60 183.20 131.55 183.00 131.00
C 182.24 128.89 183.36 127.99 181.00 127.00
C 178.29 128.06 172.92 128.27 171.00 126.00
C 171.00 127.33 171.00 128.67 171.00 130.00 Z"/>
</g>
<g fill="None" fill-opacity="0.0" stroke="#B67EA9" stroke-opacity="1.00" stroke-width="0.3"><path d="
M 115.00 134.00 
C 116.70 135.02 118.13 136.49 120.00 137.00
C 124.13 130.58 131.65 136.31 137.00 137.00
C 136.32 135.46 136.55 133.51 136.00 132.00
C 135.04 127.74 130.30 128.08 127.00 127.00
C 124.58 131.17 119.79 128.90 116.00 129.00
C 116.16 130.88 114.43 132.04 115.00 134.00 Z"/>
</g>
<g fill="None" fill-opacity="0.0" stroke="#7F817F" stroke-opacity="0.42" stroke-width="0.3"><path d="
M 234.00 133.00 
C 234.42 129.87 235.04 130.57 234.00 127.00
C 234.17 128.98 233.94 131.01 234.00 133.00 Z"/>
</g>
<g fill="None" fill-opacity="0.0" stroke="#BB8BAF" stroke-opacity="1.00" stroke-width="0.3"><path d="
M 151.00 134.00 
C 151.70 134.96 152.53 135.94 153.00 137.00
C 157.06 137.68 163.33 133.88 168.00 134.00
C 167.92 133.92 167.13 131.36 167.00 131.00
C 167.00 131.00 166.99 130.50 167.00 130.00
C 167.02 127.59 164.10 128.39 162.00 128.00
C 162.00 129.33 162.00 130.67 162.00 132.00
C 158.55 128.99 152.16 135.37 148.00 130.00
C 148.77 131.42 150.02 132.66 151.00 134.00 Z"/>
</g>
<g fill="None" fill-opacity="0.0" stroke="#B071A0" stroke-opacity="1.00" stroke-width="0.3"><path d="
M 94.00 136.00 
C 92.78 138.29 94.53 142.55 93.00 145.00
C 101.44 144.98 111.24 144.35 117.00 138.00
C 112.89 135.88 108.55 136.52 104.00 136.00
C 101.07 132.57 100.33 136.39 98.00 138.00
C 98.12 135.03 100.87 132.95 101.00 130.00
C 96.71 127.05 94.33 135.38 94.00 136.00 Z"/>
</g>
<g fill="None" fill-opacity="0.0" stroke="#C290B5" stroke-opacity="1.00" stroke-width="0.3"><path d="
M 92.00 132.00 
C 89.64 136.25 89.00 141.08 89.00 146.00
C 90.43 146.86 91.88 144.97 93.00 145.00
C 94.53 142.55 92.78 138.29 94.00 136.00
C 93.39 133.75 96.03 131.89 94.00 130.00
C 93.05 130.38 92.61 131.33 92.00 132.00 Z"/>
</g>
<g fill="None" fill-opacity="0.0" stroke="#584E56" stroke-opacity="1.00" stroke-width="0.3"><path d="
M 168.00 134.00 
C 170.64 133.57 173.96 136.65 176.00 134.00
C 173.33 132.06 169.15 134.07 167.00 131.00
C 167.13 131.36 167.92 133.92 168.00 134.00 Z"/>
</g>
<g fill="None" fill-opacity="0.0" stroke="#575256" stroke-opacity="1.00" stroke-width="0.3"><path d="
M 184.00 133.00 
C 188.32 133.11 183.51 130.75 183.00 131.00
C 183.20 131.55 183.53 132.60 184.00 133.00 Z"/>
</g>
<g fill="None" fill-opacity="0.0" stroke="#D1D2D2" stroke-opacity="1.00" stroke-width="0.3"><path d="
M 228.00 135.00 
C 228.11 135.82 227.45 139.51 228.00 140.00
C 228.28 140.25 229.75 140.25 230.00 140.00
C 231.55 137.07 230.54 134.01 230.00 131.00
C 229.63 132.30 228.24 132.87 228.00 135.00 Z"/>
</g>
<g fill="None" fill-opacity="0.0" stroke="#4E3849" stroke-opacity="1.00" stroke-width="0.3"><path d="
M 153.00 137.00 
C 152.53 135.94 151.70 134.96 151.00 134.00
C 150.52 133.60 149.49 133.51 149.00 133.00
C 150.07 134.08 151.16 136.69 153.00 137.00 Z"/>
</g>
<g fill="None" fill-opacity="0.0" stroke="#A9A1A7" stroke-opacity="1.00" stroke-width="0.3"><path d="
M 198.00 137.00 
C 197.60 136.62 197.49 135.43 197.00 135.00
C 194.59 135.33 193.62 132.00 191.00 133.00
C 190.77 137.40 195.34 136.44 198.00 137.00 Z"/>
</g>
<g fill="None" fill-opacity="0.0" stroke="#B3B2B4" stroke-opacity="1.00" stroke-width="0.3"><path d="
M 218.00 137.00 
C 219.66 139.05 222.77 139.49 225.00 141.00
C 225.57 138.14 224.62 135.54 224.00 133.00
C 221.01 132.11 220.64 136.42 219.00 133.00
C 218.88 134.47 218.32 135.62 218.00 137.00 Z"/>
</g>
<g fill="None" fill-opacity="0.0" stroke="#979296" stroke-opacity="1.00" stroke-width="0.3"><path d="
M 203.00 138.00 
C 207.23 137.89 212.61 140.38 216.00 139.00
C 213.81 138.26 212.25 135.59 210.00 135.00
C 207.50 133.32 204.85 138.16 202.00 135.00
C 200.85 136.37 201.77 137.37 203.00 138.00 Z"/>
</g>
<g fill="None" fill-opacity="0.0" stroke="#EEAEDB" stroke-opacity="0.12" stroke-width="0.3"><path d="
M 86.00 141.00 
C 86.00 141.00 87.00 141.00 87.00 141.00
C 87.00 139.69 86.88 138.31 87.00 137.00
C 86.62 138.24 86.17 139.23 86.00 141.00 Z"/>
</g>
<g fill="None" fill-opacity="0.0" stroke="#EBC7E2" stroke-opacity="1.00" stroke-width="0.3"><path d="
M 162.00 138.00 
C 162.95 138.20 164.30 141.36 166.00 141.00
C 165.43 142.13 163.48 142.12 164.00 144.00
C 170.30 144.00 176.71 143.64 183.00 144.00
C 184.28 144.07 186.49 143.38 187.00 145.00
C 187.71 144.57 190.15 145.00 191.00 145.00
C 189.14 143.71 188.30 139.29 186.00 138.00
C 178.71 136.62 169.34 136.45 162.00 138.00 Z"/>
</g>
<g fill="None" fill-opacity="0.0" stroke="#ED9CD9" stroke-opacity="1.00" stroke-width="0.3"><path d="
M 78.00 154.00 
C 77.27 155.31 77.13 155.05 78.00 156.00
C 82.53 157.91 90.58 152.23 96.00 153.00 C 101.42 153.77 107.27 149.36 113.02 149.02 C 118.77 148.69 126.75 147.10 133.00 148.00
C 131.48 147.40 127.90 147.39 128.00 145.00
C 137.00 145.00 146.00 145.00 155.00 145.00
C 156.14 145.00 157.91 144.67 159.00 145.00
C 159.77 144.85 160.64 144.01 162.00 144.00
C 162.50 144.00 163.50 144.00 164.00 144.00
C 163.48 142.12 165.43 142.13 166.00 141.00
C 164.30 141.36 162.95 138.20 162.00 138.00
C 155.19 145.03 144.79 132.49 140.00 142.00
C 130.74 137.70 117.25 142.09 109.02 146.02 C 100.79 149.96 82.82 145.30 78.00 154.00 Z"/>
</g>
<g fill="None" fill-opacity="0.0" stroke="#EDE9EE" stroke-opacity="1.00" stroke-width="0.3"><path d="
M 191.00 145.00 
C 191.50 145.00 192.00 145.00 192.00 145.00
C 194.81 143.16 201.63 146.80 206.00 146.00 C 210.37 145.20 215.87 148.94 220.00 150.00
C 221.25 150.32 221.10 150.56 222.00 151.00
C 223.41 151.68 225.64 151.35 227.00 152.00
C 231.36 154.09 225.88 153.75 224.00 153.00
C 223.26 152.92 221.80 152.23 221.00 152.00
C 219.96 151.70 219.74 151.32 219.00 151.00
C 211.96 148.00 204.95 147.00 197.00 147.00
C 194.74 147.00 192.24 147.30 190.00 147.00
C 190.98 147.34 192.40 148.71 194.00 148.00
C 194.57 151.25 189.39 152.06 193.00 154.00
C 207.38 155.90 221.70 158.43 235.00 164.00
C 235.10 159.65 234.55 154.55 230.00 154.00
C 238.08 153.22 231.18 143.62 224.67 144.33 C 218.16 145.04 211.47 141.04 205.00 141.00 C 198.54 140.96 192.20 139.17 186.00 138.00
C 188.30 139.29 189.14 143.71 191.00 145.00 Z"/>
</g>
<g fill="None" fill-opacity="0.0" stroke="#626363" stroke-opacity="0.58" stroke-width="0.3"><path d="
M 235.00 145.00 
C 234.44 144.16 233.12 143.00 233.00 142.00
C 232.91 141.29 233.86 138.88 234.00 138.00
C 233.23 141.09 230.50 142.44 235.00 145.00 Z"/>
</g>
<g fill="None" fill-opacity="0.0" stroke="#9A9B9B" stroke-opacity="1.00" stroke-width="0.3"><path d="
M 230.00 140.00 
C 229.75 140.25 228.28 140.25 228.00 140.00
C 228.71 142.83 229.11 141.69 230.00 140.00 Z"/>
</g>
<g fill="None" fill-opacity="0.0" stroke="#7F6079" stroke-opacity="0.42" stroke-width="0.3"><path d="
M 85.00 147.00 
C 87.38 145.25 87.01 144.53 87.00 141.00
C 87.00 141.00 86.00 141.00 86.00 141.00
C 85.81 143.03 86.48 145.33 85.00 147.00 Z"/>
</g>
<g fill="None" fill-opacity="0.0" stroke="#DADEDE" stroke-opacity="0.18" stroke-width="0.3"><path d="
M 235.00 145.00 
C 235.21 145.31 235.84 145.73 236.00 146.00
C 236.91 143.54 233.21 143.34 233.00 142.00
C 233.12 143.00 234.44 144.16 235.00 145.00 Z"/>
</g>
<g fill="None" fill-opacity="0.0" stroke="#8A6281" stroke-opacity="1.00" stroke-width="0.3"><path d="
M 159.00 145.00 
C 159.35 145.11 160.10 145.81 160.00 146.00
C 160.74 145.88 161.89 146.18 162.00 145.00
C 162.05 144.50 162.00 144.00 162.00 144.00
C 160.64 144.01 159.77 144.85 159.00 145.00 Z"/>
</g>
<g fill="None" fill-opacity="0.0" stroke="#352430" stroke-opacity="1.00" stroke-width="0.3"><path d="
M 162.00 145.00 
C 163.65 144.50 166.27 145.00 168.00 145.00
C 172.22 145.00 176.81 145.52 181.00 145.00
C 182.22 144.85 182.26 144.22 183.00 144.00
C 176.71 143.64 170.30 144.00 164.00 144.00
C 163.50 144.00 162.50 144.00 162.00 144.00
C 162.00 144.00 162.05 144.50 162.00 145.00 Z"/>
</g>
<g fill="None" fill-opacity="0.0" stroke="#897B85" stroke-opacity="1.00" stroke-width="0.3"><path d="
M 181.00 145.00 
C 182.52 145.17 184.82 146.04 187.00 146.00
C 186.75 145.73 187.00 145.00 187.00 145.00
C 186.49 143.38 184.28 144.07 183.00 144.00
C 182.26 144.22 182.22 144.85 181.00 145.00 Z"/>
</g>
<g fill="None" fill-opacity="0.0" stroke="#5B585A" stroke-opacity="1.00" stroke-width="0.3"><path d="
M 192.00 145.00 
C 192.35 145.03 192.74 145.90 193.00 146.00
C 194.67 146.03 195.98 146.82 197.00 147.00
C 204.95 147.00 211.96 148.00 219.00 151.00
C 219.34 150.99 219.74 150.11 220.00 150.00
C 215.87 148.94 210.37 145.20 206.00 146.00 C 201.63 146.80 194.81 143.16 192.00 145.00 Z"/>
</g>
<g fill="None" fill-opacity="0.0" stroke="#8A597E" stroke-opacity="1.00" stroke-width="0.3"><path d="
M 133.00 148.00 
C 133.35 148.14 133.73 148.87 134.00 149.00
C 135.60 148.86 135.91 148.40 137.00 148.00
C 141.49 145.13 149.77 145.71 155.00 145.00
C 146.00 145.00 137.00 145.00 128.00 145.00
C 127.90 147.39 131.48 147.40 133.00 148.00 Z"/>
</g>
<g fill="None" fill-opacity="0.0" stroke="#5F3A56" stroke-opacity="1.00" stroke-width="0.3"><path d="
M 137.00 148.00 
C 143.81 145.48 152.82 147.19 160.00 146.00
C 160.10 145.81 159.35 145.11 159.00 145.00
C 157.91 144.67 156.14 145.00 155.00 145.00
C 149.77 145.71 141.49 145.13 137.00 148.00 Z"/>
</g>
<g fill="None" fill-opacity="0.0" stroke="#EA92D5" stroke-opacity="1.00" stroke-width="0.3"><path d="
M 160.00 146.00 
C 152.82 147.19 143.81 145.48 137.00 148.00
C 135.91 148.40 135.60 148.86 134.00 149.00
C 115.57 150.58 97.52 152.01 80.00 157.00
C 79.40 157.17 77.93 157.73 77.00 158.00
C 73.01 158.26 73.06 163.46 71.00 166.00
C 90.64 159.56 110.75 152.42 132.00 152.00
C 133.75 151.83 136.60 151.05 139.00 151.00
C 148.86 150.80 158.43 151.81 168.00 152.00
C 168.64 151.80 169.75 150.26 171.00 151.00
C 171.92 148.23 168.81 147.10 168.00 145.00
C 166.27 145.00 163.65 144.50 162.00 145.00
C 161.89 146.18 160.74 145.88 160.00 146.00 Z"/>
</g>
<g fill="None" fill-opacity="0.0" stroke="#F4D0EC" stroke-opacity="1.00" stroke-width="0.3"><path d="
M 168.00 152.00 
C 176.78 152.18 184.59 153.19 193.00 154.00
C 189.39 152.06 194.57 151.25 194.00 148.00
C 192.40 148.71 190.98 147.34 190.00 147.00
C 189.84 146.94 190.00 146.00 190.00 146.00
C 189.00 146.00 188.00 145.98 187.00 146.00
C 184.82 146.04 182.52 145.17 181.00 145.00
C 176.81 145.52 172.22 145.00 168.00 145.00
C 168.81 147.10 171.92 148.23 171.00 151.00
C 169.75 150.26 168.64 151.80 168.00 152.00 Z"/>
</g>
<g fill="None" fill-opacity="0.0" stroke="#090709" stroke-opacity="1.00" stroke-width="0.3"><path d="
M 187.00 146.00 
C 188.00 145.98 189.00 146.00 190.00 146.00
C 191.00 146.00 192.00 145.98 193.00 146.00
C 192.74 145.90 192.35 145.03 192.00 145.00
C 192.00 145.00 191.50 145.00 191.00 145.00
C 190.15 145.00 187.71 144.57 187.00 145.00
C 187.00 145.00 186.75 145.73 187.00 146.00 Z"/>
</g>
<g fill="None" fill-opacity="0.0" stroke="#9E939B" stroke-opacity="1.00" stroke-width="0.3"><path d="
M 190.00 147.00 
C 192.24 147.30 194.74 147.00 197.00 147.00
C 195.98 146.82 194.67 146.03 193.00 146.00
C 192.00 145.98 191.00 146.00 190.00 146.00
C 190.00 146.00 189.84 146.94 190.00 147.00 Z"/>
</g>
<g fill="None" fill-opacity="0.0" stroke="#673F5D" stroke-opacity="1.00" stroke-width="0.3"><path d="
M 78.00 156.00 
C 78.73 156.80 78.76 156.89 80.00 157.00
C 97.52 152.01 115.57 150.58 134.00 149.00
C 133.73 148.87 133.35 148.14 133.00 148.00
C 126.75 147.10 118.77 148.69 113.02 149.02 C 107.27 149.36 101.42 153.77 96.00 153.00 C 90.58 152.23 82.53 157.91 78.00 156.00 Z"/>
</g>
<g fill="None" fill-opacity="0.0" stroke="#878687" stroke-opacity="1.00" stroke-width="0.3"><path d="
M 219.00 151.00 
C 219.74 151.32 219.96 151.70 221.00 152.00
C 221.26 151.89 221.65 151.03 222.00 151.00
C 221.10 150.56 221.25 150.32 220.00 150.00
C 219.74 150.11 219.34 150.99 219.00 151.00 Z"/>
</g>
<g fill="None" fill-opacity="0.0" stroke="#8A567D" stroke-opacity="1.00" stroke-width="0.3"><path d="
M 132.00 152.00 
C 134.40 151.95 137.25 151.17 139.00 151.00
C 136.60 151.05 133.75 151.83 132.00 152.00 Z"/>
</g>
<g fill="None" fill-opacity="0.0" stroke="#464747" stroke-opacity="1.00" stroke-width="0.3"><path d="
M 221.00 152.00 
C 221.80 152.23 223.26 152.92 224.00 153.00
C 224.98 153.10 226.75 153.33 227.00 152.00
C 225.64 151.35 223.41 151.68 222.00 151.00
C 221.65 151.03 221.26 151.89 221.00 152.00 Z"/>
</g>
<g fill="None" fill-opacity="0.0" stroke="#8F8F91" stroke-opacity="1.00" stroke-width="0.3"><path d="
M 224.00 153.00 
C 225.88 153.75 231.36 154.09 227.00 152.00
C 226.75 153.33 224.98 153.10 224.00 153.00 Z"/>
</g>
<g fill="None" fill-opacity="0.0" stroke="#A27798" stroke-opacity="1.00" stroke-width="0.3"><path d="
M 77.00 158.00 
C 77.93 157.73 79.40 157.17 80.00 157.00
C 78.76 156.89 78.73 156.80 78.00 156.00
C 77.13 155.05 77.27 155.31 78.00 154.00
C 76.39 155.93 77.65 156.73 77.00 158.00 Z"/>
</g>
<g fill="None" fill-opacity="0.0" stroke="#F47AE3" stroke-opacity="1.00" stroke-width="0.3"><path d="
M 132.00 216.00 
C 133.57 216.00 140.67 216.14 141.00 216.00
C 146.50 212.83 147.43 205.22 155.00 204.00
C 149.74 202.28 144.04 193.02 151.75 190.75 C 159.46 188.48 165.31 189.78 173.00 187.00
C 168.20 186.21 163.81 183.98 159.00 183.00
C 161.97 182.78 161.77 177.39 164.00 181.00
C 164.74 178.41 165.51 173.96 169.00 176.00
C 168.09 171.64 170.00 161.56 176.00 162.00
C 175.81 159.96 172.85 157.21 174.00 156.00
C 174.20 155.60 174.00 155.00 174.00 155.00
C 140.68 152.39 106.60 155.20 77.00 168.00
C 82.96 168.92 88.66 174.89 90.22 180.78 C 91.78 186.66 98.10 191.95 96.00 198.00
C 105.78 208.13 118.58 213.82 132.00 216.00 Z"/>
</g>
<g fill="None" fill-opacity="0.0" stroke="#CFD3D3" stroke-opacity="0.19" stroke-width="0.3"><path d="
M 238.00 158.00 
C 237.91 156.42 237.21 155.02 237.00 154.00
C 237.12 155.49 237.84 157.06 238.00 158.00 Z"/>
</g>
<g fill="None" fill-opacity="0.0" stroke="#926993" stroke-opacity="1.00" stroke-width="0.3"><path d="
M 174.00 156.00 
C 176.28 156.30 178.70 155.89 181.00 156.00
C 179.11 155.69 176.56 155.05 174.00 155.00
C 174.00 155.00 174.20 155.60 174.00 156.00 Z"/>
</g>
<g fill="None" fill-opacity="0.0" stroke="#E17BF5" stroke-opacity="1.00" stroke-width="0.3"><path d="
M 155.00 204.00 
C 156.28 203.79 157.73 204.29 159.00 204.00
C 165.48 202.52 170.01 199.25 177.01 198.01 C 184.01 196.77 181.42 188.38 183.00 182.00
C 190.77 183.51 189.13 172.05 196.00 174.00
C 195.01 169.86 196.74 167.01 201.00 167.00
C 202.15 162.20 200.13 159.18 196.00 158.00
C 194.60 157.93 193.82 157.17 193.00 157.00
C 188.76 156.80 185.13 156.20 181.00 156.00
C 178.70 155.89 176.28 156.30 174.00 156.00
C 172.85 157.21 175.81 159.96 176.00 162.00
C 170.00 161.56 168.09 171.64 169.00 176.00
C 165.51 173.96 164.74 178.41 164.00 181.00
C 161.77 177.39 161.97 182.78 159.00 183.00
C 163.81 183.98 168.20 186.21 173.00 187.00
C 165.31 189.78 159.46 188.48 151.75 190.75 C 144.04 193.02 149.74 202.28 155.00 204.00 Z"/>
</g>
<g fill="None" fill-opacity="0.0" stroke="#926A9E" stroke-opacity="1.00" stroke-width="0.3"><path d="
M 196.00 158.00 
C 196.99 158.05 198.01 158.00 199.00 158.00
C 197.41 157.72 195.22 157.10 193.00 157.00
C 193.82 157.17 194.60 157.93 196.00 158.00 Z"/>
</g>
<g fill="None" fill-opacity="0.0" stroke="#DE9AF8" stroke-opacity="1.00" stroke-width="0.3"><path d="
M 159.00 204.00 
C 165.80 207.42 171.10 217.57 178.93 212.93 C 186.75 208.28 195.84 208.90 202.92 203.92 C 209.99 198.94 213.86 195.06 221.00 190.00
C 219.85 182.69 219.23 173.05 222.00 166.00
C 221.26 163.48 215.91 161.63 214.00 161.00
C 209.19 159.90 204.01 157.98 199.00 158.00
C 198.01 158.00 196.99 158.05 196.00 158.00
C 200.13 159.18 202.15 162.20 201.00 167.00
C 196.74 167.01 195.01 169.86 196.00 174.00
C 189.13 172.05 190.77 183.51 183.00 182.00
C 181.42 188.38 184.01 196.77 177.01 198.01 C 170.01 199.25 165.48 202.52 159.00 204.00 Z"/>
</g>
<g fill="None" fill-opacity="0.0" stroke="#C4C0C7" stroke-opacity="1.00" stroke-width="0.3"><path d="
M 222.00 166.00 
C 223.36 165.58 224.33 164.20 225.00 163.00
C 221.08 163.28 217.61 161.83 214.00 161.00
C 215.91 161.63 221.26 163.48 222.00 166.00 Z"/>
</g>
<g fill="None" fill-opacity="0.0" stroke="#D7DDE0" stroke-opacity="1.00" stroke-width="0.3"><path d="
M 231.00 166.00 
C 220.97 164.79 223.72 180.40 224.00 186.00
C 225.88 179.15 229.83 173.01 231.00 166.00 Z"/>
</g>
<g fill="None" fill-opacity="0.0" stroke="#B5BEC5" stroke-opacity="0.23" stroke-width="0.3"><path d="
M 235.00 172.00 
C 235.55 170.44 237.65 167.82 238.00 166.00
C 237.49 167.69 235.62 169.55 235.00 172.00 Z"/>
</g>
<g fill="None" fill-opacity="0.0" stroke="#C38FB6" stroke-opacity="0.35" stroke-width="0.3"><path d="
M 73.00 177.00 
C 71.93 175.31 70.95 172.66 70.00 171.00
C 70.94 173.24 71.72 175.12 73.00 177.00 Z"/>
</g>
<g fill="None" fill-opacity="0.0" stroke="#E190CE" stroke-opacity="1.00" stroke-width="0.3"><path d="
M 91.00 192.00 
C 90.83 191.57 91.00 191.00 91.00 191.00
C 86.24 183.95 84.22 171.77 74.00 171.00
C 79.25 176.85 82.87 188.60 91.00 192.00 Z"/>
</g>
<g fill="None" fill-opacity="0.0" stroke="#53384B" stroke-opacity="0.63" stroke-width="0.3"><path d="
M 74.00 179.00 
C 75.33 180.42 77.44 181.91 79.00 183.00
C 77.73 180.41 74.41 179.24 73.00 177.00
C 73.37 177.55 73.63 178.39 74.00 179.00 Z"/>
</g>
<g fill="None" fill-opacity="0.0" stroke="#F9B4EB" stroke-opacity="0.10" stroke-width="0.3"><path d="
M 79.00 184.00 
C 79.00 184.00 79.20 183.40 79.00 183.00
C 77.44 181.91 75.33 180.42 74.00 179.00
C 75.29 181.13 77.36 182.24 79.00 184.00 Z"/>
</g>
<g fill="None" fill-opacity="0.0" stroke="#9E9CA8" stroke-opacity="0.31" stroke-width="0.3"><path d="
M 227.00 187.00 
C 227.53 186.51 228.49 186.40 229.00 186.00
C 230.73 184.03 232.05 182.64 233.00 180.00
C 231.88 182.25 228.80 184.89 227.00 187.00 Z"/>
</g>
<g fill="None" fill-opacity="0.0" stroke="#E5CAD9" stroke-opacity="0.12" stroke-width="0.3"><path d="
M 89.00 196.00 
C 87.05 193.08 84.09 190.74 82.00 188.00
C 81.41 187.23 80.60 186.71 80.00 186.00
C 82.20 190.29 85.90 192.44 89.00 196.00 Z"/>
</g>
<g fill="None" fill-opacity="0.0" stroke="#DEF5FA" stroke-opacity="0.15" stroke-width="0.3"><path d="
M 227.00 187.00 
C 225.69 188.54 224.30 190.37 223.00 192.00
C 224.84 190.05 227.15 188.10 229.00 186.00
C 228.49 186.40 227.53 186.51 227.00 187.00 Z"/>
</g>
<g fill="None" fill-opacity="0.0" stroke="#694562" stroke-opacity="0.59" stroke-width="0.3"><path d="
M 89.00 196.00 
C 90.06 197.59 89.70 196.91 91.00 198.00
C 88.10 194.99 85.14 191.17 82.00 188.00
C 84.09 190.74 87.05 193.08 89.00 196.00 Z"/>
</g>
<g fill="None" fill-opacity="0.0" stroke="#684F62" stroke-opacity="1.00" stroke-width="0.3"><path d="
M 91.00 192.00 
C 91.77 193.16 92.08 195.51 94.00 195.00
C 93.21 193.42 92.74 191.78 91.00 191.00
C 91.00 191.00 90.83 191.57 91.00 192.00 Z"/>
</g>
<g fill="None" fill-opacity="0.0" stroke="#3E4142" stroke-opacity="0.74" stroke-width="0.3"><path d="
M 214.00 200.00 
C 214.00 200.00 214.60 200.20 215.00 200.00
C 216.23 198.25 217.81 196.71 219.00 195.00
C 217.26 195.85 214.78 198.14 214.00 200.00 Z"/>
</g>
<g fill="None" fill-opacity="0.0" stroke="#E0EDF2" stroke-opacity="0.17" stroke-width="0.3"><path d="
M 215.00 200.00 
C 216.74 199.15 219.22 196.87 220.00 195.00
C 220.00 195.00 219.40 194.80 219.00 195.00
C 217.81 196.71 216.23 198.25 215.00 200.00 Z"/>
</g>
<g fill="None" fill-opacity="0.0" stroke="#CC90C1" stroke-opacity="0.24" stroke-width="0.3"><path d="
M 96.00 202.00 
C 94.54 200.70 92.42 199.48 91.00 198.00
C 92.77 199.49 93.78 200.81 96.00 202.00 Z"/>
</g>
<g fill="None" fill-opacity="0.0" stroke="#C1CEC0" stroke-opacity="0.18" stroke-width="0.3"><path d="
M 210.00 203.00 
C 211.19 201.69 212.83 201.61 214.00 200.00
C 212.61 201.15 211.31 201.70 210.00 203.00 Z"/>
</g>
<g fill="None" fill-opacity="0.0" stroke="#684C60" stroke-opacity="0.59" stroke-width="0.3"><path d="
M 96.00 203.00 
C 97.51 204.05 99.30 205.25 100.00 207.00
C 100.20 207.51 100.75 210.18 101.00 211.00
C 101.16 206.03 99.42 205.04 96.00 202.00
C 96.00 202.00 95.80 202.60 96.00 203.00 Z"/>
</g>
<g fill="None" fill-opacity="0.0" stroke="#FFB2E6" stroke-opacity="0.13" stroke-width="0.3"><path d="
M 100.00 207.00 
C 99.30 205.25 97.51 204.05 96.00 203.00
C 96.82 204.67 99.29 205.59 100.00 207.00 Z"/>
</g>
<g fill="None" fill-opacity="0.0" stroke="#9A9BA1" stroke-opacity="0.37" stroke-width="0.3"><path d="
M 207.00 211.00 
C 208.16 208.54 208.17 205.01 210.00 203.00
C 207.36 205.61 206.54 206.79 207.00 211.00 Z"/>
</g>
<g fill="None" fill-opacity="0.0" stroke="#E6BEB6" stroke-opacity="1.00" stroke-width="0.3"><path d="
M 192.00 212.00 
C 196.12 213.48 188.65 223.42 187.23 227.23 C 185.81 231.03 181.20 238.44 176.30 240.30 C 171.40 242.17 166.63 249.66 163.00 252.00
C 183.29 245.48 197.81 226.08 205.00 207.00
C 200.61 208.29 196.14 210.89 192.00 212.00 Z"/>
</g>
<g fill="None" fill-opacity="0.0" stroke="#A87DA6" stroke-opacity="1.00" stroke-width="0.3"><path d="
M 147.00 212.00 
C 147.82 211.14 152.24 208.02 153.00 208.00
C 150.27 207.88 148.48 210.06 147.00 212.00 Z"/>
</g>
<g fill="None" fill-opacity="0.0" stroke="#F8D1DC" stroke-opacity="1.00" stroke-width="0.3"><path d="
M 147.00 212.00 
C 141.49 219.19 137.46 221.31 128.00 219.00
C 124.07 219.64 115.72 225.26 111.00 223.00
C 113.27 226.34 115.22 229.87 118.00 233.00
C 123.30 235.34 132.43 229.22 138.00 230.00
C 148.80 231.51 158.45 230.16 168.00 225.00
C 168.52 222.77 166.46 221.27 167.00 219.00
C 166.88 218.53 167.00 218.00 167.00 218.00
C 164.67 216.60 160.83 215.72 159.75 213.25 C 158.67 210.77 155.10 207.94 153.00 208.00
C 152.24 208.02 147.82 211.14 147.00 212.00 Z"/>
</g>
<g fill="None" fill-opacity="0.0" stroke="#F1B8D6" stroke-opacity="1.00" stroke-width="0.3"><path d="
M 111.00 223.00 
C 115.72 225.26 124.07 219.64 128.00 219.00
C 119.70 216.45 111.71 213.23 104.00 209.00
C 102.96 215.13 108.14 218.79 111.00 223.00 Z"/>
</g>
<g fill="None" fill-opacity="0.0" stroke="#F9DFDD" stroke-opacity="1.00" stroke-width="0.3"><path d="
M 167.00 218.00 
C 167.00 218.00 166.88 218.53 167.00 219.00
C 171.72 219.78 173.20 227.12 174.00 231.00
C 171.51 230.32 172.01 227.00 170.00 226.00
C 163.98 228.90 158.11 233.22 151.00 233.00
C 147.68 233.54 144.38 234.64 141.00 233.00
C 139.30 232.18 139.41 230.95 138.00 230.00
C 132.43 229.22 123.30 235.34 118.00 233.00
C 128.96 245.33 146.82 256.19 163.00 252.00
C 166.63 249.66 171.40 242.17 176.30 240.30 C 181.20 238.44 185.81 231.03 187.23 227.23 C 188.65 223.42 196.12 213.48 192.00 212.00
C 183.49 214.27 176.13 217.17 167.00 218.00 Z"/>
</g>
<g fill="None" fill-opacity="0.0" stroke="#DAE4E7" stroke-opacity="0.21" stroke-width="0.3"><path d="
M 203.00 218.00 
C 204.24 215.91 206.40 214.75 207.00 212.00
C 205.40 213.64 204.04 215.78 203.00 218.00 Z"/>
</g>
<g fill="None" fill-opacity="0.0" stroke="#8D8583" stroke-opacity="0.24" stroke-width="0.3"><path d="
M 103.00 217.00 
C 103.06 214.89 101.40 215.26 101.00 214.00
C 101.21 215.74 101.53 216.12 103.00 217.00 Z"/>
</g>
<g fill="None" fill-opacity="0.0" stroke="#E8C5E6" stroke-opacity="1.00" stroke-width="0.3"><path d="
M 132.00 216.00 
C 134.77 216.45 137.75 217.87 141.00 216.00
C 140.67 216.14 133.57 216.00 132.00 216.00 Z"/>
</g>
<g fill="None" fill-opacity="0.0" stroke="#D9B5CC" stroke-opacity="0.26" stroke-width="0.3"><path d="
M 106.00 222.00 
C 105.23 220.54 103.90 219.20 103.00 218.00
C 103.17 219.97 104.24 221.10 106.00 222.00 Z"/>
</g>
<g fill="None" fill-opacity="0.0" stroke="#0F0F0F" stroke-opacity="1.00" stroke-width="0.3"><path d="
M 138.00 230.00 
C 139.41 230.95 139.30 232.18 141.00 233.00
C 143.60 233.81 148.26 233.15 151.00 233.00
C 158.11 233.22 163.98 228.90 170.00 226.00
C 172.01 227.00 171.51 230.32 174.00 231.00
C 173.20 227.12 171.72 219.78 167.00 219.00
C 166.46 221.27 168.52 222.77 168.00 225.00
C 158.45 230.16 148.80 231.51 138.00 230.00 Z"/>
</g>
<g fill="None" fill-opacity="0.0" stroke="#C8BEC4" stroke-opacity="0.31" stroke-width="0.3"><path d="
M 135.00 250.00 
C 130.00 245.99 123.58 243.15 118.75 238.25 C 113.92 233.35 111.45 226.81 106.00 223.00
C 112.52 233.49 122.41 247.05 135.00 250.00 Z"/>
</g>
<g fill="None" fill-opacity="0.0" stroke="#AFA5A4" stroke-opacity="0.29" stroke-width="0.3"><path d="
M 191.00 236.00 
C 194.52 233.70 197.96 228.70 200.00 225.00
C 197.30 228.70 193.55 231.90 191.00 236.00 Z"/>
</g>
<g fill="None" fill-opacity="0.0" stroke="#7F7172" stroke-opacity="1.00" stroke-width="0.3"><path d="
M 151.00 233.00 
C 148.26 233.15 143.60 233.81 141.00 233.00
C 144.38 234.64 147.68 233.54 151.00 233.00 Z"/>
</g>
<g fill="None" fill-opacity="0.0" stroke="#DBEDFF" stroke-opacity="0.11" stroke-width="0.3"><path d="
M 184.00 244.00 
C 186.36 242.56 189.74 239.58 191.00 237.00
C 188.26 238.92 186.41 241.75 184.00 244.00 Z"/>
</g>
<g fill="None" fill-opacity="0.0" stroke="#C5CACA" stroke-opacity="0.27" stroke-width="0.3"><path d="
M 175.00 251.00 
C 178.02 249.59 179.65 247.19 182.00 245.00
C 179.60 246.65 177.32 249.61 175.00 251.00 Z"/>
</g>
<g fill="None" fill-opacity="0.0" stroke="#CCC9CC" stroke-opacity="0.28" stroke-width="0.3"><path d="
M 140.00 252.00 
C 138.64 251.26 137.91 250.12 136.00 250.00
C 137.28 251.32 138.33 251.33 140.00 252.00 Z"/>
</g>
<g fill="None" fill-opacity="0.0" stroke="#98948F" stroke-opacity="0.19" stroke-width="0.3"><path d="
M 154.00 257.00 
C 153.34 256.90 151.13 255.28 150.00 255.00
C 151.32 255.48 152.12 256.91 154.00 257.00 Z"/>
</g>
<g fill="#000000" fill-opacity="0.00" stroke="None">
<path d="
M 0.00 320.00 
L 312.00 320.00
L 312.00 0.00
L 0.00 0.00
L 0.00 320.00
M 158.00 69.00 
C 160.27 69.19 162.72 69.07 165.00 69.00
C 167.18 68.93 168.68 69.52 171.00 70.00
C 175.40 70.49 178.97 70.20 183.00 72.00
C 186.36 73.50 189.09 76.40 192.00 78.00
C 193.60 78.70 195.35 79.16 197.00 80.00
C 198.72 80.61 199.64 81.26 202.00 83.00
C 203.17 83.69 204.75 84.11 206.00 85.00
C 210.09 87.90 215.41 92.75 218.00 97.00
C 218.39 97.64 218.86 98.25 219.00 99.00
C 219.09 99.48 219.00 100.00 219.00 100.00
C 220.85 100.48 222.01 101.74 222.00 104.00
C 222.00 104.50 222.00 105.00 222.00 105.00
C 226.17 107.22 227.10 108.99 229.00 113.00
C 231.25 117.76 232.55 122.01 234.00 127.00
C 235.04 130.57 234.42 129.87 234.00 133.00
C 234.07 135.19 234.38 135.68 234.00 138.00
C 233.86 138.88 232.91 141.29 233.00 142.00
C 233.21 143.34 236.91 143.54 236.00 146.00
C 237.33 148.26 236.79 151.39 237.00 154.00
C 237.21 155.02 237.91 156.42 238.00 158.00
C 238.14 160.42 238.45 163.62 238.00 166.00
C 237.65 167.82 235.55 170.44 235.00 172.00
C 234.34 174.61 233.92 177.44 233.00 180.00
C 232.05 182.64 230.73 184.03 229.00 186.00
C 227.15 188.10 224.84 190.05 223.00 192.00
C 222.14 193.08 222.15 194.70 220.00 195.00
C 219.22 196.87 216.74 199.15 215.00 200.00
C 214.60 200.20 214.00 200.00 214.00 200.00
C 212.83 201.61 211.19 201.69 210.00 203.00
C 208.17 205.01 208.16 208.54 207.00 211.00
C 207.05 211.49 207.00 212.00 207.00 212.00
C 206.40 214.75 204.24 215.91 203.00 218.00
C 201.95 220.24 201.25 222.73 200.00 225.00
C 197.96 228.70 194.52 233.70 191.00 236.00
C 190.78 236.36 191.00 237.00 191.00 237.00
C 189.74 239.58 186.36 242.56 184.00 244.00
C 183.39 244.37 182.55 244.63 182.00 245.00
C 179.65 247.19 178.02 249.59 175.00 251.00
C 169.75 253.46 159.76 257.27 154.00 257.00
C 152.12 256.91 151.32 255.48 150.00 255.00
C 146.36 254.08 143.53 253.41 140.00 252.00
C 138.33 251.33 137.28 251.32 136.00 250.00
C 135.50 249.97 135.00 250.00 135.00 250.00
C 122.41 247.05 112.52 233.49 106.00 223.00
C 105.78 222.64 106.00 222.00 106.00 222.00
C 104.24 221.10 103.17 219.97 103.00 218.00
C 102.96 217.50 103.00 217.00 103.00 217.00
C 101.53 216.12 101.21 215.74 101.00 214.00
C 100.89 213.05 100.97 211.95 101.00 211.00
C 100.75 210.18 100.20 207.51 100.00 207.00
C 99.29 205.59 96.82 204.67 96.00 203.00
C 95.80 202.60 96.00 202.00 96.00 202.00
C 93.78 200.81 92.77 199.49 91.00 198.00
C 89.70 196.91 90.06 197.59 89.00 196.00
C 85.90 192.44 82.20 190.29 80.00 186.00
C 79.64 185.29 79.15 184.80 79.00 184.00
C 77.36 182.24 75.29 181.13 74.00 179.00
C 73.63 178.39 73.37 177.55 73.00 177.00
C 71.72 175.12 70.94 173.24 70.00 171.00
C 66.56 162.84 71.30 158.99 73.00 151.00
C 77.10 150.09 80.94 145.67 85.00 147.00
C 86.48 145.33 85.81 143.03 86.00 141.00
C 86.17 139.23 86.62 138.24 87.00 137.00
C 87.33 133.40 88.86 129.44 90.00 126.00
C 90.08 125.62 90.79 122.85 91.00 122.00
C 91.05 121.00 90.96 120.00 91.00 119.00
C 91.10 116.76 92.69 115.53 93.00 114.00
C 93.18 112.36 92.75 110.63 93.00 109.00
C 93.39 106.51 95.86 102.34 98.00 101.00
C 98.10 100.52 98.00 100.00 98.00 100.00
C 99.35 97.25 102.66 94.74 105.00 93.00
C 108.58 90.34 112.03 88.67 116.00 89.00
C 116.14 89.01 116.69 88.21 117.00 88.00
C 120.91 82.98 124.71 78.18 130.00 75.00
C 136.44 71.14 145.40 69.39 153.00 69.00
C 154.82 68.70 156.34 68.86 158.00 69.00 Z"/>
</g>
<g fill="#EDEDED" fill-opacity="0.09" stroke="None">
<path d="
M 153.00 69.00 
C 154.60 68.92 156.41 68.83 158.00 69.00
C 156.34 68.86 154.82 68.70 153.00 69.00 Z"/>
</g>
<g fill="#D0D0D0" fill-opacity="0.22" stroke="None">
<path d="
M 165.00 69.00 
C 167.15 68.99 168.84 69.76 171.00 70.00
C 168.68 69.52 167.18 68.93 165.00 69.00 Z"/>
</g>
<g fill="#242323" fill-opacity="0.96" stroke="None">
<path d="
M 130.00 75.00 
C 126.80 77.41 123.58 81.98 121.00 85.00
C 119.67 86.56 118.46 89.25 116.00 89.00
C 112.03 88.67 108.58 90.34 105.00 93.00
C 102.54 95.14 100.73 98.09 98.00 100.00
C 98.00 100.00 98.10 100.52 98.00 101.00
C 97.33 104.03 93.62 106.43 93.00 109.00
C 92.75 110.63 93.18 112.36 93.00 114.00
C 92.80 115.82 91.31 117.65 91.00 119.00
C 90.96 120.00 91.05 121.00 91.00 122.00
C 90.91 123.74 90.52 124.44 90.00 126.00
C 88.86 129.44 87.33 133.40 87.00 137.00
C 86.88 138.31 87.00 139.69 87.00 141.00
C 87.01 144.53 87.38 145.25 85.00 147.00
C 80.94 145.67 77.10 150.09 73.00 151.00
C 71.30 158.99 66.56 162.84 70.00 171.00
C 70.95 172.66 71.93 175.31 73.00 177.00
C 74.41 179.24 77.73 180.41 79.00 183.00
C 79.20 183.40 79.00 184.00 79.00 184.00
C 79.15 184.80 79.64 185.29 80.00 186.00
C 80.60 186.71 81.41 187.23 82.00 188.00
C 85.14 191.17 88.10 194.99 91.00 198.00
C 92.42 199.48 94.54 200.70 96.00 202.00
C 99.42 205.04 101.16 206.03 101.00 211.00
C 100.97 211.95 100.89 213.05 101.00 214.00
C 101.40 215.26 103.06 214.89 103.00 217.00
C 103.00 217.00 102.96 217.50 103.00 218.00
C 103.90 219.20 105.23 220.54 106.00 222.00
C 106.00 222.00 105.78 222.64 106.00 223.00
C 111.45 226.81 113.92 233.35 118.75 238.25 C 123.58 243.15 130.00 245.99 135.00 250.00
C 135.00 250.00 135.50 249.97 136.00 250.00
C 137.91 250.12 138.64 251.26 140.00 252.00
C 143.53 253.41 146.36 254.08 150.00 255.00
C 151.13 255.28 153.34 256.90 154.00 257.00
C 159.76 257.27 169.75 253.46 175.00 251.00
C 177.32 249.61 179.60 246.65 182.00 245.00
C 182.55 244.63 183.39 244.37 184.00 244.00
C 186.41 241.75 188.26 238.92 191.00 237.00
C 191.00 237.00 190.78 236.36 191.00 236.00
C 193.55 231.90 197.30 228.70 200.00 225.00
C 201.25 222.73 201.95 220.24 203.00 218.00
C 204.04 215.78 205.40 213.64 207.00 212.00
C 207.00 212.00 207.05 211.49 207.00 211.00
C 206.54 206.79 207.36 205.61 210.00 203.00
C 211.31 201.70 212.61 201.15 214.00 200.00
C 214.78 198.14 217.26 195.85 219.00 195.00
C 219.40 194.80 220.00 195.00 220.00 195.00
C 222.15 194.70 222.14 193.08 223.00 192.00
C 224.30 190.37 225.69 188.54 227.00 187.00
C 228.80 184.89 231.88 182.25 233.00 180.00
C 233.92 177.44 234.34 174.61 235.00 172.00
C 235.62 169.55 237.49 167.69 238.00 166.00
C 238.45 163.62 238.14 160.42 238.00 158.00
C 237.84 157.06 237.12 155.49 237.00 154.00
C 236.79 151.39 237.33 148.26 236.00 146.00
C 235.84 145.73 235.21 145.31 235.00 145.00
C 230.50 142.44 233.23 141.09 234.00 138.00
C 234.38 135.68 234.07 135.19 234.00 133.00
C 233.94 131.01 234.17 128.98 234.00 127.00
C 232.55 122.01 231.25 117.76 229.00 113.00
C 227.16 109.83 223.98 107.89 222.00 105.00
C 222.00 105.00 222.00 104.50 222.00 104.00
C 220.58 102.96 219.48 101.79 219.00 100.00
C 219.00 100.00 219.09 99.48 219.00 99.00
C 214.95 96.17 210.93 91.87 208.00 88.00
C 207.36 87.15 206.71 85.68 206.00 85.00
C 204.75 84.11 203.17 83.69 202.00 83.00
C 200.18 81.94 198.75 80.90 197.00 80.00
C 195.35 79.16 193.60 78.70 192.00 78.00
C 188.52 76.48 185.97 73.69 183.00 72.00
C 178.97 70.20 175.40 70.49 171.00 70.00
C 168.84 69.76 167.15 68.99 165.00 69.00
C 163.21 69.01 159.88 69.20 158.00 69.00
C 156.41 68.83 154.60 68.92 153.00 69.00
C 145.40 69.39 136.44 71.14 130.00 75.00
M 158.00 72.00 
C 159.31 72.11 160.68 72.00 162.00 72.00
C 165.01 72.00 168.76 71.34 171.00 73.00
C 171.48 73.11 172.00 73.00 172.00 73.00
C 174.20 72.73 175.49 73.58 177.00 74.00
C 186.92 76.75 201.34 84.94 208.00 92.00
C 209.18 93.25 210.82 94.82 212.00 96.00
C 219.08 103.08 225.18 113.55 228.00 123.00
C 228.81 125.73 229.49 128.13 230.00 131.00
C 230.54 134.01 231.55 137.07 230.00 140.00
C 229.11 141.69 228.71 142.83 228.00 140.00
C 227.45 139.51 228.11 135.82 228.00 135.00
C 227.71 132.78 225.77 129.78 226.00 127.00
C 225.24 125.67 222.41 124.14 221.00 124.00
C 221.18 127.26 224.46 129.53 224.00 133.00
C 224.62 135.54 225.57 138.14 225.00 141.00
C 222.77 139.49 219.66 139.05 218.00 137.00
C 217.70 136.76 217.00 137.00 217.00 137.00
C 214.09 135.58 212.73 131.33 209.00 132.00
C 208.47 133.28 209.97 133.86 210.00 135.00
C 212.25 135.59 213.81 138.26 216.00 139.00
C 212.61 140.38 207.23 137.89 203.00 138.00
C 201.12 137.74 199.74 137.36 198.00 137.00
C 195.34 136.44 190.77 137.40 191.00 133.00
C 193.62 132.00 194.59 135.33 197.00 135.00
C 198.00 135.17 198.76 136.48 200.00 136.00
C 198.47 132.67 196.02 127.86 192.00 127.00
C 191.92 127.49 192.00 128.00 192.00 128.00
C 195.12 132.83 182.02 126.64 183.00 131.00
C 183.51 130.75 188.32 133.11 184.00 133.00
C 179.69 132.89 175.17 130.97 171.00 130.00
C 169.47 129.65 168.17 127.98 167.00 130.00
C 166.99 130.50 167.00 131.00 167.00 131.00
C 169.15 134.07 173.33 132.06 176.00 134.00
C 173.96 136.65 170.64 133.57 168.00 134.00
C 163.33 133.88 157.06 137.68 153.00 137.00
C 151.16 136.69 150.07 134.08 149.00 133.00
C 148.23 132.20 147.53 130.94 147.00 130.00
C 142.83 130.01 147.49 133.10 147.00 135.00
C 143.22 134.38 140.28 130.96 136.00 132.00
C 136.55 133.51 136.32 135.46 137.00 137.00
C 131.65 136.31 124.13 130.58 120.00 137.00
C 118.13 136.49 116.70 135.02 115.00 134.00
C 113.39 133.39 110.79 133.07 109.00 133.00
C 107.00 132.93 105.00 133.06 103.00 133.00
C 102.47 134.28 103.97 134.86 104.00 136.00
C 108.55 136.52 112.89 135.88 117.00 138.00
C 111.24 144.35 101.44 144.98 93.00 145.00
C 91.88 144.97 90.43 146.86 89.00 146.00
C 89.00 141.08 89.64 136.25 92.00 132.00
C 93.55 126.30 93.75 120.21 96.00 115.00
C 98.02 110.31 99.77 106.18 104.00 103.00
C 108.67 99.49 112.65 99.11 118.00 100.00
C 118.83 99.62 120.14 100.30 121.00 100.00
C 120.28 96.06 122.49 92.90 122.00 89.00
C 126.09 85.01 134.97 85.81 136.00 80.00
C 133.23 80.27 130.93 82.22 128.00 82.00
C 133.24 73.78 143.84 74.46 152.00 72.00
C 152.50 72.02 153.55 72.15 154.00 72.00
C 155.69 71.45 155.78 71.82 158.00 72.00
M 116.00 94.00 
C 114.10 99.02 108.49 93.42 116.00 94.00
M 186.00 138.00 
C 192.20 139.17 198.54 140.96 205.00 141.00 C 211.47 141.04 218.16 145.04 224.67 144.33 C 231.18 143.62 238.08 153.22 230.00 154.00
C 234.55 154.55 235.10 159.65 235.00 164.00
C 221.70 158.43 207.38 155.90 193.00 154.00
C 184.59 153.19 176.78 152.18 168.00 152.00
C 158.43 151.81 148.86 150.80 139.00 151.00
C 137.25 151.17 134.40 151.95 132.00 152.00
C 110.75 152.42 90.64 159.56 71.00 166.00
C 73.06 163.46 73.01 158.26 77.00 158.00
C 77.65 156.73 76.39 155.93 78.00 154.00
C 82.82 145.30 100.79 149.96 109.02 146.02 C 117.25 142.09 130.74 137.70 140.00 142.00
C 144.79 132.49 155.19 145.03 162.00 138.00
C 169.34 136.45 178.71 136.62 186.00 138.00
M 174.00 155.00 
C 176.56 155.05 179.11 155.69 181.00 156.00
C 185.13 156.20 188.76 156.80 193.00 157.00
C 195.22 157.10 197.41 157.72 199.00 158.00
C 204.01 157.98 209.19 159.90 214.00 161.00
C 217.61 161.83 221.08 163.28 225.00 163.00
C 224.33 164.20 223.36 165.58 222.00 166.00
C 219.23 173.05 219.85 182.69 221.00 190.00
C 213.86 195.06 209.99 198.94 202.92 203.92 C 195.84 208.90 186.75 208.28 178.93 212.93 C 171.10 217.57 165.80 207.42 159.00 204.00
C 157.73 204.29 156.28 203.79 155.00 204.00
C 147.43 205.22 146.50 212.83 141.00 216.00
C 137.75 217.87 134.77 216.45 132.00 216.00
C 118.58 213.82 105.78 208.13 96.00 198.00
C 98.10 191.95 91.78 186.66 90.22 180.78 C 88.66 174.89 82.96 168.92 77.00 168.00
C 106.60 155.20 140.68 152.39 174.00 155.00
M 231.00 166.00 
C 229.83 173.01 225.88 179.15 224.00 186.00
C 223.72 180.40 220.97 164.79 231.00 166.00
M 91.00 191.00 
C 92.74 191.78 93.21 193.42 94.00 195.00
C 92.08 195.51 91.77 193.16 91.00 192.00
C 82.87 188.60 79.25 176.85 74.00 171.00
C 84.22 171.77 86.24 183.95 91.00 191.00
M 163.00 252.00 
C 146.82 256.19 128.96 245.33 118.00 233.00
C 115.22 229.87 113.27 226.34 111.00 223.00
C 108.14 218.79 102.96 215.13 104.00 209.00
C 111.71 213.23 119.70 216.45 128.00 219.00
C 137.46 221.31 141.49 219.19 147.00 212.00
C 148.48 210.06 150.27 207.88 153.00 208.00
C 155.10 207.94 158.67 210.77 159.75 213.25 C 160.83 215.72 164.67 216.60 167.00 218.00
C 176.13 217.17 183.49 214.27 192.00 212.00
C 196.14 210.89 200.61 208.29 205.00 207.00
C 197.81 226.08 183.29 245.48 163.00 252.00 Z"/>
</g>
<g fill="#3D3D3D" fill-opacity="0.45" stroke="None">
<path d="
M 165.00 69.00 
C 162.72 69.07 160.27 69.19 158.00 69.00
C 159.88 69.20 163.21 69.01 165.00 69.00 Z"/>
</g>
<g fill="#5A5659" fill-opacity="1.00" stroke="None">
<path d="
M 154.00 72.00 
C 155.11 71.56 152.04 76.20 150.00 74.00
C 150.08 72.74 152.06 73.44 152.00 72.00
C 143.84 74.46 133.24 73.78 128.00 82.00
C 130.93 82.22 133.23 80.27 136.00 80.00
C 134.97 85.81 126.09 85.01 122.00 89.00
C 122.49 92.90 120.28 96.06 121.00 100.00
C 120.14 100.30 118.83 99.62 118.00 100.00
C 119.96 100.32 122.66 102.68 125.00 103.00
C 126.53 97.54 131.90 98.67 136.74 97.40 C 141.58 96.14 146.79 101.98 152.00 102.00
C 148.64 100.26 147.65 97.59 149.00 94.00
C 149.39 99.96 152.73 94.18 155.00 98.00
C 156.21 98.57 156.83 100.02 159.00 101.00
C 158.18 100.42 158.06 98.89 158.00 98.00
C 166.34 98.55 177.32 102.22 180.00 111.00
C 176.08 110.90 174.92 105.07 171.00 105.00
C 179.75 110.88 183.28 118.73 193.00 122.00
C 191.13 123.68 193.52 125.30 192.00 127.00
C 196.02 127.86 198.47 132.67 200.00 136.00
C 198.76 136.48 198.00 135.17 197.00 135.00
C 197.49 135.43 197.60 136.62 198.00 137.00
C 199.74 137.36 201.12 137.74 203.00 138.00
C 201.77 137.37 200.85 136.37 202.00 135.00
C 204.85 138.16 207.50 133.32 210.00 135.00
C 209.97 133.86 208.47 133.28 209.00 132.00
C 212.73 131.33 214.09 135.58 217.00 137.00
C 215.49 134.84 211.79 132.71 214.00 130.00
C 216.18 132.72 217.50 132.95 221.00 132.00
C 218.51 128.84 219.50 124.53 215.00 123.00
C 215.05 117.86 218.74 120.05 219.00 116.00
C 214.55 114.12 214.69 109.05 216.00 105.00
C 211.86 105.02 210.20 103.44 213.00 100.00
C 209.42 101.08 207.50 102.24 204.00 99.00
C 207.46 92.88 198.45 90.25 194.00 92.00
C 194.16 83.68 180.22 88.64 181.00 78.00
C 179.69 81.44 178.16 77.13 176.00 79.00
C 176.66 77.21 173.10 75.04 175.00 74.00
C 175.39 73.79 176.82 73.76 177.00 74.00
C 175.49 73.58 174.20 72.73 172.00 73.00
C 170.31 74.39 168.48 75.95 166.00 76.00
C 164.88 72.48 168.77 72.92 171.00 73.00
C 168.76 71.34 165.01 72.00 162.00 72.00
C 162.88 72.19 165.45 73.41 165.00 75.00
C 162.81 73.88 159.05 74.86 158.00 72.00
C 155.78 71.82 155.69 71.45 154.00 72.00
M 171.00 92.00 
C 163.79 93.58 162.25 84.44 154.33 88.33 C 146.41 92.22 150.98 82.19 157.00 84.00 C 163.02 85.81 168.30 86.67 171.00 92.00
M 144.00 94.00 
C 139.87 91.25 135.41 94.58 131.00 94.00
C 130.71 89.54 144.82 87.20 144.00 94.00
M 210.00 112.00 
C 200.12 114.56 195.60 97.32 185.00 97.00
C 187.30 90.83 194.49 97.54 197.75 101.25 C 201.02 104.95 206.27 109.68 210.00 112.00 Z"/>
</g>
<g fill="#A0A0A0" fill-opacity="1.00" stroke="None">
<path d="
M 154.00 72.00 
C 153.55 72.15 152.50 72.02 152.00 72.00
C 152.06 73.44 150.08 72.74 150.00 74.00
C 152.04 76.20 155.11 71.56 154.00 72.00 Z"/>
</g>
<g fill="#8E8E8E" fill-opacity="1.00" stroke="None">
<path d="
M 162.00 72.00 
C 160.68 72.00 159.31 72.11 158.00 72.00
C 159.05 74.86 162.81 73.88 165.00 75.00
C 165.45 73.41 162.88 72.19 162.00 72.00 Z"/>
</g>
<g fill="#DDDDDD" fill-opacity="0.18" stroke="None">
<path d="
M 192.00 78.00 
C 189.09 76.40 186.36 73.50 183.00 72.00
C 185.97 73.69 188.52 76.48 192.00 78.00 Z"/>
</g>
<g fill="#858585" fill-opacity="1.00" stroke="None">
<path d="
M 172.00 73.00 
C 172.00 73.00 171.48 73.11 171.00 73.00
C 168.77 72.92 164.88 72.48 166.00 76.00
C 168.48 75.95 170.31 74.39 172.00 73.00 Z"/>
</g>
<g fill="#6A696A" fill-opacity="1.00" stroke="None">
<path d="
M 217.00 137.00 
C 217.00 137.00 217.70 136.76 218.00 137.00
C 218.32 135.62 218.88 134.47 219.00 133.00
C 220.64 136.42 221.01 132.11 224.00 133.00
C 224.46 129.53 221.18 127.26 221.00 124.00
C 222.41 124.14 225.24 125.67 226.00 127.00
C 226.08 125.99 228.01 123.89 228.00 123.00
C 225.18 113.55 219.08 103.08 212.00 96.00
C 212.72 98.17 213.25 99.34 210.00 99.00
C 211.21 94.93 203.89 93.66 208.00 92.00
C 201.34 84.94 186.92 76.75 177.00 74.00
C 177.92 75.21 177.63 75.73 177.00 77.00
C 175.99 76.45 175.56 75.02 175.00 74.00
C 173.10 75.04 176.66 77.21 176.00 79.00
C 178.16 77.13 179.69 81.44 181.00 78.00
C 180.22 88.64 194.16 83.68 194.00 92.00
C 198.45 90.25 207.46 92.88 204.00 99.00
C 207.50 102.24 209.42 101.08 213.00 100.00
C 210.20 103.44 211.86 105.02 216.00 105.00
C 214.69 109.05 214.55 114.12 219.00 116.00
C 218.74 120.05 215.05 117.86 215.00 123.00
C 219.50 124.53 218.51 128.84 221.00 132.00
C 217.50 132.95 216.18 132.72 214.00 130.00
C 211.79 132.71 215.49 134.84 217.00 137.00 Z"/>
</g>
<g fill="#8F8F8F" fill-opacity="1.00" stroke="None">
<path d="
M 177.00 74.00 
C 176.82 73.76 175.39 73.79 175.00 74.00
C 175.56 75.02 175.99 76.45 177.00 77.00
C 177.63 75.73 177.92 75.21 177.00 74.00 Z"/>
</g>
<g fill="#BAB9BA" fill-opacity="0.30" stroke="None">
<path d="
M 117.00 88.00 
C 118.28 87.14 119.94 86.02 121.00 85.00
C 123.58 81.98 126.80 77.41 130.00 75.00
C 124.71 78.18 120.91 82.98 117.00 88.00 Z"/>
</g>
<g fill="#EFEFEF" fill-opacity="0.20" stroke="None">
<path d="
M 197.00 80.00 
C 198.75 80.90 200.18 81.94 202.00 83.00
C 199.64 81.26 198.72 80.61 197.00 80.00 Z"/>
</g>
<g fill="#272727" fill-opacity="1.00" stroke="None">
<path d="
M 171.00 92.00 
C 168.30 86.67 163.02 85.81 157.00 84.00 C 150.98 82.19 146.41 92.22 154.33 88.33 C 162.25 84.44 163.79 93.58 171.00 92.00 Z"/>
</g>
<g fill="#525052" fill-opacity="0.73" stroke="None">
<path d="
M 117.00 88.00 
C 116.69 88.21 116.14 89.01 116.00 89.00
C 118.46 89.25 119.67 86.56 121.00 85.00
C 119.94 86.02 118.28 87.14 117.00 88.00 Z"/>
</g>
<g fill="#F8F8F8" fill-opacity="0.13" stroke="None">
<path d="
M 208.00 88.00 
C 210.92 91.19 215.10 93.89 218.00 97.00
C 215.41 92.75 210.09 87.90 206.00 85.00
C 206.71 85.68 207.36 87.15 208.00 88.00 Z"/>
</g>
<g fill="#5C5C5C" fill-opacity="0.64" stroke="None">
<path d="
M 219.00 99.00 
C 218.86 98.25 218.39 97.64 218.00 97.00
C 215.10 93.89 210.92 91.19 208.00 88.00
C 210.93 91.87 214.95 96.17 219.00 99.00 Z"/>
</g>
<g fill="#222121" fill-opacity="1.00" stroke="None">
<path d="
M 144.00 94.00 
C 144.82 87.20 130.71 89.54 131.00 94.00
C 135.41 94.58 139.87 91.25 144.00 94.00 Z"/>
</g>
<g fill="#909090" fill-opacity="1.00" stroke="None">
<path d="
M 212.00 96.00 
C 210.82 94.82 209.18 93.25 208.00 92.00
C 203.89 93.66 211.21 94.93 210.00 99.00
C 213.25 99.34 212.72 98.17 212.00 96.00 Z"/>
</g>
<g fill="#DFD8DE" fill-opacity="0.25" stroke="None">
<path d="
M 98.00 100.00 
C 100.73 98.09 102.54 95.14 105.00 93.00
C 102.66 94.74 99.35 97.25 98.00 100.00 Z"/>
</g>
<g fill="#575356" fill-opacity="1.00" stroke="None">
<path d="
M 116.00 94.00 
C 108.49 93.42 114.10 99.02 116.00 94.00 Z"/>
</g>
<g fill="#6A5D66" fill-opacity="1.00" stroke="None">
<path d="
M 118.00 100.00 
C 112.65 99.11 108.67 99.49 104.00 103.00
C 108.00 103.39 102.41 110.69 102.00 112.00
C 101.59 113.30 101.19 114.59 101.00 116.00
C 104.16 113.55 107.21 109.77 111.00 112.00
C 112.73 110.23 114.13 108.34 115.00 106.00
C 118.06 107.64 119.15 103.73 123.00 105.00
C 120.57 111.64 130.09 107.85 134.00 109.00 C 137.91 110.15 140.79 113.26 146.00 112.00
C 143.55 110.68 141.17 109.52 138.00 109.00
C 138.76 105.24 144.44 105.80 147.00 108.00
C 144.21 103.74 152.01 104.96 154.00 104.00
C 154.43 101.82 151.59 98.94 155.00 98.00
C 152.73 94.18 149.39 99.96 149.00 94.00
C 147.65 97.59 148.64 100.26 152.00 102.00
C 146.79 101.98 141.58 96.14 136.74 97.40 C 131.90 98.67 126.53 97.54 125.00 103.00
C 122.66 102.68 119.96 100.32 118.00 100.00 Z"/>
</g>
<g fill="#232323" fill-opacity="1.00" stroke="None">
<path d="
M 210.00 112.00 
C 206.27 109.68 201.02 104.95 197.75 101.25 C 194.49 97.54 187.30 90.83 185.00 97.00
C 195.60 97.32 200.12 114.56 210.00 112.00 Z"/>
</g>
<g fill="#80747D" fill-opacity="1.00" stroke="None">
<path d="
M 155.00 98.00 
C 151.59 98.94 154.43 101.82 154.00 104.00
C 152.01 104.96 144.21 103.74 147.00 108.00
C 147.92 108.55 149.26 109.32 150.00 110.00
C 153.00 110.89 155.97 107.43 157.00 105.00
C 160.35 107.00 166.97 107.99 164.00 102.00
C 162.62 101.57 160.21 101.55 159.00 101.00
C 156.83 100.02 156.21 98.57 155.00 98.00 Z"/>
</g>
<g fill="#222223" fill-opacity="1.00" stroke="None">
<path d="
M 159.00 101.00 
C 160.21 101.55 162.62 101.57 164.00 102.00
C 166.44 102.75 168.70 103.76 171.00 105.00
C 174.92 105.07 176.08 110.90 180.00 111.00
C 177.32 102.22 166.34 98.55 158.00 98.00
C 158.06 98.89 158.18 100.42 159.00 101.00 Z"/>
</g>
<g fill="#9F9F9F" fill-opacity="0.35" stroke="None">
<path d="
M 222.00 104.00 
C 222.01 101.74 220.85 100.48 219.00 100.00
C 219.48 101.79 220.58 102.96 222.00 104.00 Z"/>
</g>
<g fill="#C5B7CE" fill-opacity="0.29" stroke="None">
<path d="
M 93.00 109.00 
C 93.62 106.43 97.33 104.03 98.00 101.00
C 95.86 102.34 93.39 106.51 93.00 109.00 Z"/>
</g>
<g fill="#695A65" fill-opacity="1.00" stroke="None">
<path d="
M 150.00 110.00 
C 153.75 113.45 156.67 117.97 162.00 118.00
C 162.35 121.23 157.89 119.57 156.00 120.00
C 158.51 121.13 163.92 122.05 163.00 117.00
C 169.50 119.62 177.57 120.36 181.00 127.00
C 181.68 123.44 185.34 127.35 186.00 124.00
C 188.35 124.85 189.23 128.24 192.00 128.00
C 192.00 128.00 191.92 127.49 192.00 127.00
C 193.52 125.30 191.13 123.68 193.00 122.00
C 183.28 118.73 179.75 110.88 171.00 105.00
C 168.70 103.76 166.44 102.75 164.00 102.00
C 166.97 107.99 160.35 107.00 157.00 105.00
C 155.97 107.43 153.00 110.89 150.00 110.00 Z"/>
</g>
<g fill="#8D7F8A" fill-opacity="1.00" stroke="None">
<path d="
M 96.00 115.00 
C 97.47 113.43 100.47 113.49 102.00 112.00
C 102.41 110.69 108.00 103.39 104.00 103.00
C 99.77 106.18 98.02 110.31 96.00 115.00 Z"/>
</g>
<g fill="#806379" fill-opacity="1.00" stroke="None">
<path d="
M 102.00 112.00 
C 100.47 113.49 97.47 113.43 96.00 115.00
C 93.75 120.21 93.55 126.30 92.00 132.00
C 92.61 131.33 93.05 130.38 94.00 130.00
C 96.03 131.89 93.39 133.75 94.00 136.00
C 94.33 135.38 96.71 127.05 101.00 130.00
C 100.87 132.95 98.12 135.03 98.00 138.00
C 100.33 136.39 101.07 132.57 104.00 136.00
C 103.97 134.86 102.47 134.28 103.00 133.00
C 105.00 133.06 107.00 132.93 109.00 133.00
C 108.04 132.68 106.58 131.27 105.00 132.00
C 104.10 123.99 111.09 130.23 113.25 126.20 C 115.41 122.17 122.57 123.18 123.00 120.00
C 124.42 120.77 127.01 124.00 127.00 119.00
C 128.29 120.70 130.72 122.95 133.00 121.00
C 127.08 119.38 131.42 118.98 135.00 117.00
C 133.36 128.35 153.79 122.70 162.00 128.00
C 164.10 128.39 167.02 127.59 167.00 130.00
C 168.17 127.98 169.47 129.65 171.00 130.00
C 171.00 128.67 171.00 127.33 171.00 126.00
C 172.92 128.27 178.29 128.06 181.00 127.00
C 177.57 120.36 169.50 119.62 163.00 117.00
C 163.92 122.05 158.51 121.13 156.00 120.00
C 152.25 118.31 149.51 113.90 146.00 112.00
C 140.79 113.26 137.91 110.15 134.00 109.00 C 130.09 107.85 120.57 111.64 123.00 105.00
C 119.15 103.73 118.06 107.64 115.00 106.00
C 114.13 108.34 112.73 110.23 111.00 112.00
C 107.21 109.77 104.16 113.55 101.00 116.00
C 101.19 114.59 101.59 113.30 102.00 112.00 Z"/>
</g>
<g fill="#D9D9D9" fill-opacity="0.24" stroke="None">
<path d="
M 229.00 113.00 
C 227.10 108.99 226.17 107.22 222.00 105.00
C 223.98 107.89 227.16 109.83 229.00 113.00 Z"/>
</g>
<g fill="#252324" fill-opacity="1.00" stroke="None">
<path d="
M 146.00 112.00 
C 149.51 113.90 152.25 118.31 156.00 120.00
C 157.89 119.57 162.35 121.23 162.00 118.00
C 156.67 117.97 153.75 113.45 150.00 110.00
C 149.26 109.32 147.92 108.55 147.00 108.00
C 144.44 105.80 138.76 105.24 138.00 109.00
C 141.17 109.52 143.55 110.68 146.00 112.00 Z"/>
</g>
<g fill="#CAB9C8" fill-opacity="0.24" stroke="None">
<path d="
M 91.00 119.00 
C 91.31 117.65 92.80 115.82 93.00 114.00
C 92.69 115.53 91.10 116.76 91.00 119.00 Z"/>
</g>
<g fill="#98698C" fill-opacity="1.00" stroke="None">
<path d="
M 109.00 133.00 
C 110.79 133.07 113.39 133.39 115.00 134.00
C 114.43 132.04 116.16 130.88 116.00 129.00
C 119.79 128.90 124.58 131.17 127.00 127.00
C 130.30 128.08 135.04 127.74 136.00 132.00
C 140.28 130.96 143.22 134.38 147.00 135.00
C 147.49 133.10 142.83 130.01 147.00 130.00
C 147.53 130.94 148.23 132.20 149.00 133.00
C 149.49 133.51 150.52 133.60 151.00 134.00
C 150.02 132.66 148.77 131.42 148.00 130.00
C 152.16 135.37 158.55 128.99 162.00 132.00
C 162.00 130.67 162.00 129.33 162.00 128.00
C 153.79 122.70 133.36 128.35 135.00 117.00
C 131.42 118.98 127.08 119.38 133.00 121.00
C 130.72 122.95 128.29 120.70 127.00 119.00
C 127.01 124.00 124.42 120.77 123.00 120.00
C 122.57 123.18 115.41 122.17 113.25 126.20 C 111.09 130.23 104.10 123.99 105.00 132.00
C 106.58 131.27 108.04 132.68 109.00 133.00 Z"/>
</g>
<g fill="#E6C5D7" fill-opacity="0.25" stroke="None">
<path d="
M 90.00 126.00 
C 90.52 124.44 90.91 123.74 91.00 122.00
C 90.79 122.85 90.08 125.62 90.00 126.00 Z"/>
</g>
<g fill="#979898" fill-opacity="1.00" stroke="None">
<path d="
M 226.00 127.00 
C 225.77 129.78 227.71 132.78 228.00 135.00
C 228.24 132.87 229.63 132.30 230.00 131.00
C 229.49 128.13 228.81 125.73 228.00 123.00
C 228.01 123.89 226.08 125.99 226.00 127.00 Z"/>
</g>
<g fill="#857982" fill-opacity="1.00" stroke="None">
<path d="
M 181.00 127.00 
C 183.36 127.99 182.24 128.89 183.00 131.00
C 182.02 126.64 195.12 132.83 192.00 128.00
C 189.23 128.24 188.35 124.85 186.00 124.00
C 185.34 127.35 181.68 123.44 181.00 127.00 Z"/>
</g>
<g fill="#A993A4" fill-opacity="1.00" stroke="None">
<path d="
M 171.00 130.00 
C 175.17 130.97 179.69 132.89 184.00 133.00
C 183.53 132.60 183.20 131.55 183.00 131.00
C 182.24 128.89 183.36 127.99 181.00 127.00
C 178.29 128.06 172.92 128.27 171.00 126.00
C 171.00 127.33 171.00 128.67 171.00 130.00 Z"/>
</g>
<g fill="#B67EA9" fill-opacity="1.00" stroke="None">
<path d="
M 115.00 134.00 
C 116.70 135.02 118.13 136.49 120.00 137.00
C 124.13 130.58 131.65 136.31 137.00 137.00
C 136.32 135.46 136.55 133.51 136.00 132.00
C 135.04 127.74 130.30 128.08 127.00 127.00
C 124.58 131.17 119.79 128.90 116.00 129.00
C 116.16 130.88 114.43 132.04 115.00 134.00 Z"/>
</g>
<g fill="#7F817F" fill-opacity="0.42" stroke="None">
<path d="
M 234.00 133.00 
C 234.42 129.87 235.04 130.57 234.00 127.00
C 234.17 128.98 233.94 131.01 234.00 133.00 Z"/>
</g>
<g fill="#BB8BAF" fill-opacity="1.00" stroke="None">
<path d="
M 151.00 134.00 
C 151.70 134.96 152.53 135.94 153.00 137.00
C 157.06 137.68 163.33 133.88 168.00 134.00
C 167.92 133.92 167.13 131.36 167.00 131.00
C 167.00 131.00 166.99 130.50 167.00 130.00
C 167.02 127.59 164.10 128.39 162.00 128.00
C 162.00 129.33 162.00 130.67 162.00 132.00
C 158.55 128.99 152.16 135.37 148.00 130.00
C 148.77 131.42 150.02 132.66 151.00 134.00 Z"/>
</g>
<g fill="#B071A0" fill-opacity="1.00" stroke="None">
<path d="
M 94.00 136.00 
C 92.78 138.29 94.53 142.55 93.00 145.00
C 101.44 144.98 111.24 144.35 117.00 138.00
C 112.89 135.88 108.55 136.52 104.00 136.00
C 101.07 132.57 100.33 136.39 98.00 138.00
C 98.12 135.03 100.87 132.95 101.00 130.00
C 96.71 127.05 94.33 135.38 94.00 136.00 Z"/>
</g>
<g fill="#C290B5" fill-opacity="1.00" stroke="None">
<path d="
M 92.00 132.00 
C 89.64 136.25 89.00 141.08 89.00 146.00
C 90.43 146.86 91.88 144.97 93.00 145.00
C 94.53 142.55 92.78 138.29 94.00 136.00
C 93.39 133.75 96.03 131.89 94.00 130.00
C 93.05 130.38 92.61 131.33 92.00 132.00 Z"/>
</g>
<g fill="#584E56" fill-opacity="1.00" stroke="None">
<path d="
M 168.00 134.00 
C 170.64 133.57 173.96 136.65 176.00 134.00
C 173.33 132.06 169.15 134.07 167.00 131.00
C 167.13 131.36 167.92 133.92 168.00 134.00 Z"/>
</g>
<g fill="#575256" fill-opacity="1.00" stroke="None">
<path d="
M 184.00 133.00 
C 188.32 133.11 183.51 130.75 183.00 131.00
C 183.20 131.55 183.53 132.60 184.00 133.00 Z"/>
</g>
<g fill="#D1D2D2" fill-opacity="1.00" stroke="None">
<path d="
M 228.00 135.00 
C 228.11 135.82 227.45 139.51 228.00 140.00
C 228.28 140.25 229.75 140.25 230.00 140.00
C 231.55 137.07 230.54 134.01 230.00 131.00
C 229.63 132.30 228.24 132.87 228.00 135.00 Z"/>
</g>
<g fill="#4E3849" fill-opacity="1.00" stroke="None">
<path d="
M 153.00 137.00 
C 152.53 135.94 151.70 134.96 151.00 134.00
C 150.52 133.60 149.49 133.51 149.00 133.00
C 150.07 134.08 151.16 136.69 153.00 137.00 Z"/>
</g>
<g fill="#A9A1A7" fill-opacity="1.00" stroke="None">
<path d="
M 198.00 137.00 
C 197.60 136.62 197.49 135.43 197.00 135.00
C 194.59 135.33 193.62 132.00 191.00 133.00
C 190.77 137.40 195.34 136.44 198.00 137.00 Z"/>
</g>
<g fill="#B3B2B4" fill-opacity="1.00" stroke="None">
<path d="
M 218.00 137.00 
C 219.66 139.05 222.77 139.49 225.00 141.00
C 225.57 138.14 224.62 135.54 224.00 133.00
C 221.01 132.11 220.64 136.42 219.00 133.00
C 218.88 134.47 218.32 135.62 218.00 137.00 Z"/>
</g>
<g fill="#979296" fill-opacity="1.00" stroke="None">
<path d="
M 203.00 138.00 
C 207.23 137.89 212.61 140.38 216.00 139.00
C 213.81 138.26 212.25 135.59 210.00 135.00
C 207.50 133.32 204.85 138.16 202.00 135.00
C 200.85 136.37 201.77 137.37 203.00 138.00 Z"/>
</g>
<g fill="#EEAEDB" fill-opacity="0.12" stroke="None">
<path d="
M 86.00 141.00 
C 86.00 141.00 87.00 141.00 87.00 141.00
C 87.00 139.69 86.88 138.31 87.00 137.00
C 86.62 138.24 86.17 139.23 86.00 141.00 Z"/>
</g>
<g fill="#EBC7E2" fill-opacity="1.00" stroke="None">
<path d="
M 162.00 138.00 
C 162.95 138.20 164.30 141.36 166.00 141.00
C 165.43 142.13 163.48 142.12 164.00 144.00
C 170.30 144.00 176.71 143.64 183.00 144.00
C 184.28 144.07 186.49 143.38 187.00 145.00
C 187.71 144.57 190.15 145.00 191.00 145.00
C 189.14 143.71 188.30 139.29 186.00 138.00
C 178.71 136.62 169.34 136.45 162.00 138.00 Z"/>
</g>
<g fill="#ED9CD9" fill-opacity="1.00" stroke="None">
<path d="
M 78.00 154.00 
C 77.27 155.31 77.13 155.05 78.00 156.00
C 82.53 157.91 90.58 152.23 96.00 153.00 C 101.42 153.77 107.27 149.36 113.02 149.02 C 118.77 148.69 126.75 147.10 133.00 148.00
C 131.48 147.40 127.90 147.39 128.00 145.00
C 137.00 145.00 146.00 145.00 155.00 145.00
C 156.14 145.00 157.91 144.67 159.00 145.00
C 159.77 144.85 160.64 144.01 162.00 144.00
C 162.50 144.00 163.50 144.00 164.00 144.00
C 163.48 142.12 165.43 142.13 166.00 141.00
C 164.30 141.36 162.95 138.20 162.00 138.00
C 155.19 145.03 144.79 132.49 140.00 142.00
C 130.74 137.70 117.25 142.09 109.02 146.02 C 100.79 149.96 82.82 145.30 78.00 154.00 Z"/>
</g>
<g fill="#EDE9EE" fill-opacity="1.00" stroke="None">
<path d="
M 191.00 145.00 
C 191.50 145.00 192.00 145.00 192.00 145.00
C 194.81 143.16 201.63 146.80 206.00 146.00 C 210.37 145.20 215.87 148.94 220.00 150.00
C 221.25 150.32 221.10 150.56 222.00 151.00
C 223.41 151.68 225.64 151.35 227.00 152.00
C 231.36 154.09 225.88 153.75 224.00 153.00
C 223.26 152.92 221.80 152.23 221.00 152.00
C 219.96 151.70 219.74 151.32 219.00 151.00
C 211.96 148.00 204.95 147.00 197.00 147.00
C 194.74 147.00 192.24 147.30 190.00 147.00
C 190.98 147.34 192.40 148.71 194.00 148.00
C 194.57 151.25 189.39 152.06 193.00 154.00
C 207.38 155.90 221.70 158.43 235.00 164.00
C 235.10 159.65 234.55 154.55 230.00 154.00
C 238.08 153.22 231.18 143.62 224.67 144.33 C 218.16 145.04 211.47 141.04 205.00 141.00 C 198.54 140.96 192.20 139.17 186.00 138.00
C 188.30 139.29 189.14 143.71 191.00 145.00 Z"/>
</g>
<g fill="#626363" fill-opacity="0.58" stroke="None">
<path d="
M 235.00 145.00 
C 234.44 144.16 233.12 143.00 233.00 142.00
C 232.91 141.29 233.86 138.88 234.00 138.00
C 233.23 141.09 230.50 142.44 235.00 145.00 Z"/>
</g>
<g fill="#9A9B9B" fill-opacity="1.00" stroke="None">
<path d="
M 230.00 140.00 
C 229.75 140.25 228.28 140.25 228.00 140.00
C 228.71 142.83 229.11 141.69 230.00 140.00 Z"/>
</g>
<g fill="#7F6079" fill-opacity="0.42" stroke="None">
<path d="
M 85.00 147.00 
C 87.38 145.25 87.01 144.53 87.00 141.00
C 87.00 141.00 86.00 141.00 86.00 141.00
C 85.81 143.03 86.48 145.33 85.00 147.00 Z"/>
</g>
<g fill="#DADEDE" fill-opacity="0.18" stroke="None">
<path d="
M 235.00 145.00 
C 235.21 145.31 235.84 145.73 236.00 146.00
C 236.91 143.54 233.21 143.34 233.00 142.00
C 233.12 143.00 234.44 144.16 235.00 145.00 Z"/>
</g>
<g fill="#8A6281" fill-opacity="1.00" stroke="None">
<path d="
M 159.00 145.00 
C 159.35 145.11 160.10 145.81 160.00 146.00
C 160.74 145.88 161.89 146.18 162.00 145.00
C 162.05 144.50 162.00 144.00 162.00 144.00
C 160.64 144.01 159.77 144.85 159.00 145.00 Z"/>
</g>
<g fill="#352430" fill-opacity="1.00" stroke="None">
<path d="
M 162.00 145.00 
C 163.65 144.50 166.27 145.00 168.00 145.00
C 172.22 145.00 176.81 145.52 181.00 145.00
C 182.22 144.85 182.26 144.22 183.00 144.00
C 176.71 143.64 170.30 144.00 164.00 144.00
C 163.50 144.00 162.50 144.00 162.00 144.00
C 162.00 144.00 162.05 144.50 162.00 145.00 Z"/>
</g>
<g fill="#897B85" fill-opacity="1.00" stroke="None">
<path d="
M 181.00 145.00 
C 182.52 145.17 184.82 146.04 187.00 146.00
C 186.75 145.73 187.00 145.00 187.00 145.00
C 186.49 143.38 184.28 144.07 183.00 144.00
C 182.26 144.22 182.22 144.85 181.00 145.00 Z"/>
</g>
<g fill="#5B585A" fill-opacity="1.00" stroke="None">
<path d="
M 192.00 145.00 
C 192.35 145.03 192.74 145.90 193.00 146.00
C 194.67 146.03 195.98 146.82 197.00 147.00
C 204.95 147.00 211.96 148.00 219.00 151.00
C 219.34 150.99 219.74 150.11 220.00 150.00
C 215.87 148.94 210.37 145.20 206.00 146.00 C 201.63 146.80 194.81 143.16 192.00 145.00 Z"/>
</g>
<g fill="#8A597E" fill-opacity="1.00" stroke="None">
<path d="
M 133.00 148.00 
C 133.35 148.14 133.73 148.87 134.00 149.00
C 135.60 148.86 135.91 148.40 137.00 148.00
C 141.49 145.13 149.77 145.71 155.00 145.00
C 146.00 145.00 137.00 145.00 128.00 145.00
C 127.90 147.39 131.48 147.40 133.00 148.00 Z"/>
</g>
<g fill="#5F3A56" fill-opacity="1.00" stroke="None">
<path d="
M 137.00 148.00 
C 143.81 145.48 152.82 147.19 160.00 146.00
C 160.10 145.81 159.35 145.11 159.00 145.00
C 157.91 144.67 156.14 145.00 155.00 145.00
C 149.77 145.71 141.49 145.13 137.00 148.00 Z"/>
</g>
<g fill="#EA92D5" fill-opacity="1.00" stroke="None">
<path d="
M 160.00 146.00 
C 152.82 147.19 143.81 145.48 137.00 148.00
C 135.91 148.40 135.60 148.86 134.00 149.00
C 115.57 150.58 97.52 152.01 80.00 157.00
C 79.40 157.17 77.93 157.73 77.00 158.00
C 73.01 158.26 73.06 163.46 71.00 166.00
C 90.64 159.56 110.75 152.42 132.00 152.00
C 133.75 151.83 136.60 151.05 139.00 151.00
C 148.86 150.80 158.43 151.81 168.00 152.00
C 168.64 151.80 169.75 150.26 171.00 151.00
C 171.92 148.23 168.81 147.10 168.00 145.00
C 166.27 145.00 163.65 144.50 162.00 145.00
C 161.89 146.18 160.74 145.88 160.00 146.00 Z"/>
</g>
<g fill="#F4D0EC" fill-opacity="1.00" stroke="None">
<path d="
M 168.00 152.00 
C 176.78 152.18 184.59 153.19 193.00 154.00
C 189.39 152.06 194.57 151.25 194.00 148.00
C 192.40 148.71 190.98 147.34 190.00 147.00
C 189.84 146.94 190.00 146.00 190.00 146.00
C 189.00 146.00 188.00 145.98 187.00 146.00
C 184.82 146.04 182.52 145.17 181.00 145.00
C 176.81 145.52 172.22 145.00 168.00 145.00
C 168.81 147.10 171.92 148.23 171.00 151.00
C 169.75 150.26 168.64 151.80 168.00 152.00 Z"/>
</g>
<g fill="#090709" fill-opacity="1.00" stroke="None">
<path d="
M 187.00 146.00 
C 188.00 145.98 189.00 146.00 190.00 146.00
C 191.00 146.00 192.00 145.98 193.00 146.00
C 192.74 145.90 192.35 145.03 192.00 145.00
C 192.00 145.00 191.50 145.00 191.00 145.00
C 190.15 145.00 187.71 144.57 187.00 145.00
C 187.00 145.00 186.75 145.73 187.00 146.00 Z"/>
</g>
<g fill="#9E939B" fill-opacity="1.00" stroke="None">
<path d="
M 190.00 147.00 
C 192.24 147.30 194.74 147.00 197.00 147.00
C 195.98 146.82 194.67 146.03 193.00 146.00
C 192.00 145.98 191.00 146.00 190.00 146.00
C 190.00 146.00 189.84 146.94 190.00 147.00 Z"/>
</g>
<g fill="#673F5D" fill-opacity="1.00" stroke="None">
<path d="
M 78.00 156.00 
C 78.73 156.80 78.76 156.89 80.00 157.00
C 97.52 152.01 115.57 150.58 134.00 149.00
C 133.73 148.87 133.35 148.14 133.00 148.00
C 126.75 147.10 118.77 148.69 113.02 149.02 C 107.27 149.36 101.42 153.77 96.00 153.00 C 90.58 152.23 82.53 157.91 78.00 156.00 Z"/>
</g>
<g fill="#878687" fill-opacity="1.00" stroke="None">
<path d="
M 219.00 151.00 
C 219.74 151.32 219.96 151.70 221.00 152.00
C 221.26 151.89 221.65 151.03 222.00 151.00
C 221.10 150.56 221.25 150.32 220.00 150.00
C 219.74 150.11 219.34 150.99 219.00 151.00 Z"/>
</g>
<g fill="#8A567D" fill-opacity="1.00" stroke="None">
<path d="
M 132.00 152.00 
C 134.40 151.95 137.25 151.17 139.00 151.00
C 136.60 151.05 133.75 151.83 132.00 152.00 Z"/>
</g>
<g fill="#464747" fill-opacity="1.00" stroke="None">
<path d="
M 221.00 152.00 
C 221.80 152.23 223.26 152.92 224.00 153.00
C 224.98 153.10 226.75 153.33 227.00 152.00
C 225.64 151.35 223.41 151.68 222.00 151.00
C 221.65 151.03 221.26 151.89 221.00 152.00 Z"/>
</g>
<g fill="#8F8F91" fill-opacity="1.00" stroke="None">
<path d="
M 224.00 153.00 
C 225.88 153.75 231.36 154.09 227.00 152.00
C 226.75 153.33 224.98 153.10 224.00 153.00 Z"/>
</g>
<g fill="#A27798" fill-opacity="1.00" stroke="None">
<path d="
M 77.00 158.00 
C 77.93 157.73 79.40 157.17 80.00 157.00
C 78.76 156.89 78.73 156.80 78.00 156.00
C 77.13 155.05 77.27 155.31 78.00 154.00
C 76.39 155.93 77.65 156.73 77.00 158.00 Z"/>
</g>
<g fill="#F47AE3" fill-opacity="1.00" stroke="None">
<path d="
M 132.00 216.00 
C 133.57 216.00 140.67 216.14 141.00 216.00
C 146.50 212.83 147.43 205.22 155.00 204.00
C 149.74 202.28 144.04 193.02 151.75 190.75 C 159.46 188.48 165.31 189.78 173.00 187.00
C 168.20 186.21 163.81 183.98 159.00 183.00
C 161.97 182.78 161.77 177.39 164.00 181.00
C 164.74 178.41 165.51 173.96 169.00 176.00
C 168.09 171.64 170.00 161.56 176.00 162.00
C 175.81 159.96 172.85 157.21 174.00 156.00
C 174.20 155.60 174.00 155.00 174.00 155.00
C 140.68 152.39 106.60 155.20 77.00 168.00
C 82.96 168.92 88.66 174.89 90.22 180.78 C 91.78 186.66 98.10 191.95 96.00 198.00
C 105.78 208.13 118.58 213.82 132.00 216.00 Z"/>
</g>
<g fill="#CFD3D3" fill-opacity="0.19" stroke="None">
<path d="
M 238.00 158.00 
C 237.91 156.42 237.21 155.02 237.00 154.00
C 237.12 155.49 237.84 157.06 238.00 158.00 Z"/>
</g>
<g fill="#926993" fill-opacity="1.00" stroke="None">
<path d="
M 174.00 156.00 
C 176.28 156.30 178.70 155.89 181.00 156.00
C 179.11 155.69 176.56 155.05 174.00 155.00
C 174.00 155.00 174.20 155.60 174.00 156.00 Z"/>
</g>
<g fill="#E17BF5" fill-opacity="1.00" stroke="None">
<path d="
M 155.00 204.00 
C 156.28 203.79 157.73 204.29 159.00 204.00
C 165.48 202.52 170.01 199.25 177.01 198.01 C 184.01 196.77 181.42 188.38 183.00 182.00
C 190.77 183.51 189.13 172.05 196.00 174.00
C 195.01 169.86 196.74 167.01 201.00 167.00
C 202.15 162.20 200.13 159.18 196.00 158.00
C 194.60 157.93 193.82 157.17 193.00 157.00
C 188.76 156.80 185.13 156.20 181.00 156.00
C 178.70 155.89 176.28 156.30 174.00 156.00
C 172.85 157.21 175.81 159.96 176.00 162.00
C 170.00 161.56 168.09 171.64 169.00 176.00
C 165.51 173.96 164.74 178.41 164.00 181.00
C 161.77 177.39 161.97 182.78 159.00 183.00
C 163.81 183.98 168.20 186.21 173.00 187.00
C 165.31 189.78 159.46 188.48 151.75 190.75 C 144.04 193.02 149.74 202.28 155.00 204.00 Z"/>
</g>
<g fill="#926A9E" fill-opacity="1.00" stroke="None">
<path d="
M 196.00 158.00 
C 196.99 158.05 198.01 158.00 199.00 158.00
C 197.41 157.72 195.22 157.10 193.00 157.00
C 193.82 157.17 194.60 157.93 196.00 158.00 Z"/>
</g>
<g fill="#DE9AF8" fill-opacity="1.00" stroke="None">
<path d="
M 159.00 204.00 
C 165.80 207.42 171.10 217.57 178.93 212.93 C 186.75 208.28 195.84 208.90 202.92 203.92 C 209.99 198.94 213.86 195.06 221.00 190.00
C 219.85 182.69 219.23 173.05 222.00 166.00
C 221.26 163.48 215.91 161.63 214.00 161.00
C 209.19 159.90 204.01 157.98 199.00 158.00
C 198.01 158.00 196.99 158.05 196.00 158.00
C 200.13 159.18 202.15 162.20 201.00 167.00
C 196.74 167.01 195.01 169.86 196.00 174.00
C 189.13 172.05 190.77 183.51 183.00 182.00
C 181.42 188.38 184.01 196.77 177.01 198.01 C 170.01 199.25 165.48 202.52 159.00 204.00 Z"/>
</g>
<g fill="#C4C0C7" fill-opacity="1.00" stroke="None">
<path d="
M 222.00 166.00 
C 223.36 165.58 224.33 164.20 225.00 163.00
C 221.08 163.28 217.61 161.83 214.00 161.00
C 215.91 161.63 221.26 163.48 222.00 166.00 Z"/>
</g>
<g fill="#D7DDE0" fill-opacity="1.00" stroke="None">
<path d="
M 231.00 166.00 
C 220.97 164.79 223.72 180.40 224.00 186.00
C 225.88 179.15 229.83 173.01 231.00 166.00 Z"/>
</g>
<g fill="#B5BEC5" fill-opacity="0.23" stroke="None">
<path d="
M 235.00 172.00 
C 235.55 170.44 237.65 167.82 238.00 166.00
C 237.49 167.69 235.62 169.55 235.00 172.00 Z"/>
</g>
<g fill="#C38FB6" fill-opacity="0.35" stroke="None">
<path d="
M 73.00 177.00 
C 71.93 175.31 70.95 172.66 70.00 171.00
C 70.94 173.24 71.72 175.12 73.00 177.00 Z"/>
</g>
<g fill="#E190CE" fill-opacity="1.00" stroke="None">
<path d="
M 91.00 192.00 
C 90.83 191.57 91.00 191.00 91.00 191.00
C 86.24 183.95 84.22 171.77 74.00 171.00
C 79.25 176.85 82.87 188.60 91.00 192.00 Z"/>
</g>
<g fill="#53384B" fill-opacity="0.63" stroke="None">
<path d="
M 74.00 179.00 
C 75.33 180.42 77.44 181.91 79.00 183.00
C 77.73 180.41 74.41 179.24 73.00 177.00
C 73.37 177.55 73.63 178.39 74.00 179.00 Z"/>
</g>
<g fill="#F9B4EB" fill-opacity="0.10" stroke="None">
<path d="
M 79.00 184.00 
C 79.00 184.00 79.20 183.40 79.00 183.00
C 77.44 181.91 75.33 180.42 74.00 179.00
C 75.29 181.13 77.36 182.24 79.00 184.00 Z"/>
</g>
<g fill="#9E9CA8" fill-opacity="0.31" stroke="None">
<path d="
M 227.00 187.00 
C 227.53 186.51 228.49 186.40 229.00 186.00
C 230.73 184.03 232.05 182.64 233.00 180.00
C 231.88 182.25 228.80 184.89 227.00 187.00 Z"/>
</g>
<g fill="#E5CAD9" fill-opacity="0.12" stroke="None">
<path d="
M 89.00 196.00 
C 87.05 193.08 84.09 190.74 82.00 188.00
C 81.41 187.23 80.60 186.71 80.00 186.00
C 82.20 190.29 85.90 192.44 89.00 196.00 Z"/>
</g>
<g fill="#DEF5FA" fill-opacity="0.15" stroke="None">
<path d="
M 227.00 187.00 
C 225.69 188.54 224.30 190.37 223.00 192.00
C 224.84 190.05 227.15 188.10 229.00 186.00
C 228.49 186.40 227.53 186.51 227.00 187.00 Z"/>
</g>
<g fill="#694562" fill-opacity="0.59" stroke="None">
<path d="
M 89.00 196.00 
C 90.06 197.59 89.70 196.91 91.00 198.00
C 88.10 194.99 85.14 191.17 82.00 188.00
C 84.09 190.74 87.05 193.08 89.00 196.00 Z"/>
</g>
<g fill="#684F62" fill-opacity="1.00" stroke="None">
<path d="
M 91.00 192.00 
C 91.77 193.16 92.08 195.51 94.00 195.00
C 93.21 193.42 92.74 191.78 91.00 191.00
C 91.00 191.00 90.83 191.57 91.00 192.00 Z"/>
</g>
<g fill="#3E4142" fill-opacity="0.74" stroke="None">
<path d="
M 214.00 200.00 
C 214.00 200.00 214.60 200.20 215.00 200.00
C 216.23 198.25 217.81 196.71 219.00 195.00
C 217.26 195.85 214.78 198.14 214.00 200.00 Z"/>
</g>
<g fill="#E0EDF2" fill-opacity="0.17" stroke="None">
<path d="
M 215.00 200.00 
C 216.74 199.15 219.22 196.87 220.00 195.00
C 220.00 195.00 219.40 194.80 219.00 195.00
C 217.81 196.71 216.23 198.25 215.00 200.00 Z"/>
</g>
<g fill="#CC90C1" fill-opacity="0.24" stroke="None">
<path d="
M 96.00 202.00 
C 94.54 200.70 92.42 199.48 91.00 198.00
C 92.77 199.49 93.78 200.81 96.00 202.00 Z"/>
</g>
<g fill="#C1CEC0" fill-opacity="0.18" stroke="None">
<path d="
M 210.00 203.00 
C 211.19 201.69 212.83 201.61 214.00 200.00
C 212.61 201.15 211.31 201.70 210.00 203.00 Z"/>
</g>
<g fill="#684C60" fill-opacity="0.59" stroke="None">
<path d="
M 96.00 203.00 
C 97.51 204.05 99.30 205.25 100.00 207.00
C 100.20 207.51 100.75 210.18 101.00 211.00
C 101.16 206.03 99.42 205.04 96.00 202.00
C 96.00 202.00 95.80 202.60 96.00 203.00 Z"/>
</g>
<g fill="#FFB2E6" fill-opacity="0.13" stroke="None">
<path d="
M 100.00 207.00 
C 99.30 205.25 97.51 204.05 96.00 203.00
C 96.82 204.67 99.29 205.59 100.00 207.00 Z"/>
</g>
<g fill="#9A9BA1" fill-opacity="0.37" stroke="None">
<path d="
M 207.00 211.00 
C 208.16 208.54 208.17 205.01 210.00 203.00
C 207.36 205.61 206.54 206.79 207.00 211.00 Z"/>
</g>
<g fill="#E6BEB6" fill-opacity="1.00" stroke="None">
<path d="
M 192.00 212.00 
C 196.12 213.48 188.65 223.42 187.23 227.23 C 185.81 231.03 181.20 238.44 176.30 240.30 C 171.40 242.17 166.63 249.66 163.00 252.00
C 183.29 245.48 197.81 226.08 205.00 207.00
C 200.61 208.29 196.14 210.89 192.00 212.00 Z"/>
</g>
<g fill="#A87DA6" fill-opacity="1.00" stroke="None">
<path d="
M 147.00 212.00 
C 147.82 211.14 152.24 208.02 153.00 208.00
C 150.27 207.88 148.48 210.06 147.00 212.00 Z"/>
</g>
<g fill="#F8D1DC" fill-opacity="1.00" stroke="None">
<path d="
M 147.00 212.00 
C 141.49 219.19 137.46 221.31 128.00 219.00
C 124.07 219.64 115.72 225.26 111.00 223.00
C 113.27 226.34 115.22 229.87 118.00 233.00
C 123.30 235.34 132.43 229.22 138.00 230.00
C 148.80 231.51 158.45 230.16 168.00 225.00
C 168.52 222.77 166.46 221.27 167.00 219.00
C 166.88 218.53 167.00 218.00 167.00 218.00
C 164.67 216.60 160.83 215.72 159.75 213.25 C 158.67 210.77 155.10 207.94 153.00 208.00
C 152.24 208.02 147.82 211.14 147.00 212.00 Z"/>
</g>
<g fill="#F1B8D6" fill-opacity="1.00" stroke="None">
<path d="
M 111.00 223.00 
C 115.72 225.26 124.07 219.64 128.00 219.00
C 119.70 216.45 111.71 213.23 104.00 209.00
C 102.96 215.13 108.14 218.79 111.00 223.00 Z"/>
</g>
<g fill="#F9DFDD" fill-opacity="1.00" stroke="None">
<path d="
M 167.00 218.00 
C 167.00 218.00 166.88 218.53 167.00 219.00
C 171.72 219.78 173.20 227.12 174.00 231.00
C 171.51 230.32 172.01 227.00 170.00 226.00
C 163.98 228.90 158.11 233.22 151.00 233.00
C 147.68 233.54 144.38 234.64 141.00 233.00
C 139.30 232.18 139.41 230.95 138.00 230.00
C 132.43 229.22 123.30 235.34 118.00 233.00
C 128.96 245.33 146.82 256.19 163.00 252.00
C 166.63 249.66 171.40 242.17 176.30 240.30 C 181.20 238.44 185.81 231.03 187.23 227.23 C 188.65 223.42 196.12 213.48 192.00 212.00
C 183.49 214.27 176.13 217.17 167.00 218.00 Z"/>
</g>
<g fill="#DAE4E7" fill-opacity="0.21" stroke="None">
<path d="
M 203.00 218.00 
C 204.24 215.91 206.40 214.75 207.00 212.00
C 205.40 213.64 204.04 215.78 203.00 218.00 Z"/>
</g>
<g fill="#8D8583" fill-opacity="0.24" stroke="None">
<path d="
M 103.00 217.00 
C 103.06 214.89 101.40 215.26 101.00 214.00
C 101.21 215.74 101.53 216.12 103.00 217.00 Z"/>
</g>
<g fill="#E8C5E6" fill-opacity="1.00" stroke="None">
<path d="
M 132.00 216.00 
C 134.77 216.45 137.75 217.87 141.00 216.00
C 140.67 216.14 133.57 216.00 132.00 216.00 Z"/>
</g>
<g fill="#D9B5CC" fill-opacity="0.26" stroke="None">
<path d="
M 106.00 222.00 
C 105.23 220.54 103.90 219.20 103.00 218.00
C 103.17 219.97 104.24 221.10 106.00 222.00 Z"/>
</g>
<g fill="#0F0F0F" fill-opacity="1.00" stroke="None">
<path d="
M 138.00 230.00 
C 139.41 230.95 139.30 232.18 141.00 233.00
C 143.60 233.81 148.26 233.15 151.00 233.00
C 158.11 233.22 163.98 228.90 170.00 226.00
C 172.01 227.00 171.51 230.32 174.00 231.00
C 173.20 227.12 171.72 219.78 167.00 219.00
C 166.46 221.27 168.52 222.77 168.00 225.00
C 158.45 230.16 148.80 231.51 138.00 230.00 Z"/>
</g>
<g fill="#C8BEC4" fill-opacity="0.31" stroke="None">
<path d="
M 135.00 250.00 
C 130.00 245.99 123.58 243.15 118.75 238.25 C 113.92 233.35 111.45 226.81 106.00 223.00
C 112.52 233.49 122.41 247.05 135.00 250.00 Z"/>
</g>
<g fill="#AFA5A4" fill-opacity="0.29" stroke="None">
<path d="
M 191.00 236.00 
C 194.52 233.70 197.96 228.70 200.00 225.00
C 197.30 228.70 193.55 231.90 191.00 236.00 Z"/>
</g>
<g fill="#7F7172" fill-opacity="1.00" stroke="None">
<path d="
M 151.00 233.00 
C 148.26 233.15 143.60 233.81 141.00 233.00
C 144.38 234.64 147.68 233.54 151.00 233.00 Z"/>
</g>
<g fill="#DBEDFF" fill-opacity="0.11" stroke="None">
<path d="
M 184.00 244.00 
C 186.36 242.56 189.74 239.58 191.00 237.00
C 188.26 238.92 186.41 241.75 184.00 244.00 Z"/>
</g>
<g fill="#C5CACA" fill-opacity="0.27" stroke="None">
<path d="
M 175.00 251.00 
C 178.02 249.59 179.65 247.19 182.00 245.00
C 179.60 246.65 177.32 249.61 175.00 251.00 Z"/>
</g>
<g fill="#CCC9CC" fill-opacity="0.28" stroke="None">
<path d="
M 140.00 252.00 
C 138.64 251.26 137.91 250.12 136.00 250.00
C 137.28 251.32 138.33 251.33 140.00 252.00 Z"/>
</g>
<g fill="#98948F" fill-opacity="0.19" stroke="None">
<path d="
M 154.00 257.00 
C 153.34 256.90 151.13 255.28 150.00 255.00
C 151.32 255.48 152.12 256.91 154.00 257.00 Z"/>
</g>
</svg>